<svg xmlns="http://www.w3.org/2000/svg" width="36.246" height="36.246" viewBox="0 0 36.246 36.246">
  <g id="account" transform="translate(-3 -3)">
    <g id="Layer_2" data-name="Layer 2" transform="translate(3 3)">
      <path id="Path_15238" data-name="Path 15238" d="M21.123,39.246A18.123,18.123,0,1,1,39.246,21.123,18.123,18.123,0,0,1,21.123,39.246Zm0-33.458A15.335,15.335,0,1,0,36.458,21.123,15.335,15.335,0,0,0,21.123,5.788Z" transform="translate(-3 -3)" fill="#222"/>
      <path id="Path_15239" data-name="Path 15239" d="M17.97,20.941a6.97,6.97,0,1,1,6.97-6.97A6.97,6.97,0,0,1,17.97,20.941Zm0-11.153a4.182,4.182,0,1,0,4.182,4.182A4.182,4.182,0,0,0,17.97,9.788Z" transform="translate(0.153 -1.424)" fill="#222"/>
      <path id="Path_15240" data-name="Path 15240" d="M33.233,26.364a1.394,1.394,0,0,1-1.032-.446,15.823,15.823,0,0,0-11.641-5.13H19.278A15.711,15.711,0,0,0,8.335,25.193a1.394,1.394,0,0,1-1.924-2.007A18.458,18.458,0,0,1,19.278,18h1.283a18.667,18.667,0,0,1,13.69,6.022,1.394,1.394,0,0,1-1.018,2.342Z" transform="translate(-1.797 2.911)" fill="#222"/>
    </g>
  </g>
</svg>
