<svg xmlns="http://www.w3.org/2000/svg" xmlns:xlink="http://www.w3.org/1999/xlink" width="20" height="24" viewBox="0 0 20 24">
  <defs>
    <linearGradient id="linear-gradient" x1="0.07" y1="0.327" x2="1.028" y2="0.699" gradientUnits="objectBoundingBox">
      <stop offset="0" stop-color="#fff" stop-opacity="0.2"/>
      <stop offset="1" stop-color="#fff" stop-opacity="0"/>
    </linearGradient>
  </defs>
  <g id="apple" transform="translate(-2)">
    <path id="Path_14999" data-name="Path 14999" d="M18,12.5a5.5,5.5,0,0,1,3.039-4.913A6.261,6.261,0,0,0,17,6a6.127,6.127,0,0,0-2.344.52A5.581,5.581,0,0,1,12.5,7a5.581,5.581,0,0,1-2.157-.481A6.127,6.127,0,0,0,8,6c-.614,0-6,.2-6,7,0,5.564,3.8,11,6,11a6.636,6.636,0,0,0,2.811-.594A4.1,4.1,0,0,1,12.5,23a4.1,4.1,0,0,1,1.69.406A6.643,6.643,0,0,0,17,24c1.544,0,3.743-2.671,5-6.182A5.391,5.391,0,0,1,18,12.5Z" fill="#1a1a1a"/>
    <path id="XMLID_1339_" d="M12,6a6.064,6.064,0,0,0,5-6A6.063,6.063,0,0,0,12,6Z" fill="#1a1a1a"/>
    <path id="Path_15000" data-name="Path 15000" d="M8,6.25a6.127,6.127,0,0,1,2.344.52A5.581,5.581,0,0,0,12.5,7.25a5.581,5.581,0,0,0,2.157-.481A6.127,6.127,0,0,1,17,6.25a6.344,6.344,0,0,1,3.86,1.442c.061-.033.117-.074.179-.106A6.261,6.261,0,0,0,17,6a6.127,6.127,0,0,0-2.344.52A5.581,5.581,0,0,1,12.5,7a5.581,5.581,0,0,1-2.157-.481A6.127,6.127,0,0,0,8,6c-.614,0-6,.2-6,7,0,.046.005.091.006.137C2.068,6.45,7.39,6.25,8,6.25Z" fill="#fff" opacity="0.1"/>
    <path id="Path_15001" data-name="Path 15001" d="M17,23.75a6.643,6.643,0,0,1-2.81-.593,4.1,4.1,0,0,0-1.69-.406,4.1,4.1,0,0,0-1.69.405A6.636,6.636,0,0,1,8,23.75c-2.186,0-5.934-5.347-6-10.862,0,.039-.006.073-.006.113,0,5.564,3.8,11,6,11a6.636,6.636,0,0,0,2.811-.594A4.1,4.1,0,0,1,12.5,23a4.1,4.1,0,0,1,1.69.406A6.643,6.643,0,0,0,17,24c1.544,0,3.743-2.671,5-6.182-.029-.008-.055-.021-.084-.029C20.644,21.189,18.514,23.75,17,23.75Z" opacity="0.2"/>
    <path id="Path_15002" data-name="Path 15002" d="M16.979.442a5.919,5.919,0,0,1-4.974,5.3c0,.087,0,.166,0,.253A6.077,6.077,0,0,0,17,.261C16.991.307,16.994.386,16.979.442Z" opacity="0.2"/>
    <path id="Path_15003" data-name="Path 15003" d="M12.005,5.734c.012-.065.026-.246.04-.356q.016-.207.045-.406C12.456,2.466,14.394.8,17,.261,17,.174,17,.088,17,0A6.068,6.068,0,0,0,12.005,5.734Z" fill="#fff" opacity="0.1"/>
    <path id="Path_15004" data-name="Path 15004" d="M18,12.5a5.5,5.5,0,0,1,3.039-4.913A6.261,6.261,0,0,0,17,6a6.127,6.127,0,0,0-2.344.52A5.581,5.581,0,0,1,12.5,7a5.581,5.581,0,0,1-2.157-.481A6.127,6.127,0,0,0,8,6c-.614,0-6,.2-6,7,0,5.564,3.8,11,6,11a6.636,6.636,0,0,0,2.811-.594A4.1,4.1,0,0,1,12.5,23a4.1,4.1,0,0,1,1.69.406A6.643,6.643,0,0,0,17,24c1.544,0,3.743-2.671,5-6.182A5.391,5.391,0,0,1,18,12.5ZM17,0a6.064,6.064,0,0,0-5,6A6.064,6.064,0,0,0,17,0Z" fill="url(#linear-gradient)"/>
  </g>
</svg>
