<svg xmlns="http://www.w3.org/2000/svg" width="37.956" height="28" viewBox="0 0 37.956 28">
  <g id="courses" transform="translate(-3 -6)">
    <g id="_21-studying" data-name="21-studying" transform="translate(3 6)">
      <path id="Path_12972" data-name="Path 12972" d="M10.3,32.277H3V10.38H4.46V29.358a1.46,1.46,0,0,0,1.46,1.46H12.8a4.6,4.6,0,0,1,.774,0A7.3,7.3,0,0,1,18.4,33.956a18.759,18.759,0,0,0-8.1-1.679Zm10.219-.292-.131-.146A10.015,10.015,0,0,0,12.8,27.9H7.38V6H12.8c3.766,0,6.949,3.547,7.591,8.438a.526.526,0,0,0,0,.161,11.781,11.781,0,0,1,.131,1.62Zm3.051-.146-.131.146V16.219a11.781,11.781,0,0,1,.1-1.62.526.526,0,0,0,0-.161C24.212,9.547,27.394,6,31.161,6h5.416V27.9H31.161a8.526,8.526,0,0,0-1.066.073h-.336a10.044,10.044,0,0,0-6.19,3.869Zm17.387.438h-7.3A18.978,18.978,0,0,0,25.555,34a7.416,7.416,0,0,1,4.832-3.182,4.6,4.6,0,0,1,.774,0h6.876a1.46,1.46,0,0,0,1.46-1.46V10.38h1.46Z" transform="translate(-3 -6)" fill="#fff"/>
    </g>
  </g>
</svg>
