<svg xmlns="http://www.w3.org/2000/svg" width="28" height="24" viewBox="0 0 28 24">
  <path id="business_category" data-name="business category" d="M10,4h8V2H10ZM28,14v7.5A2.507,2.507,0,0,1,25.5,24H2.5a2.407,2.407,0,0,1-1.766-.734A2.407,2.407,0,0,1,0,21.5V14H10.5v2.5a1.014,1.014,0,0,0,1,1h5a1.014,1.014,0,0,0,1-1V14ZM16,14v2H12V14ZM28,6.5v6H0v-6A2.407,2.407,0,0,1,.734,4.734,2.407,2.407,0,0,1,2.5,4H8V1.5A1.447,1.447,0,0,1,8.437.438,1.447,1.447,0,0,1,9.5,0h9a1.447,1.447,0,0,1,1.062.437A1.447,1.447,0,0,1,20,1.5V4h5.5A2.507,2.507,0,0,1,28,6.5Z" fill="#fff"/>
</svg>
