<svg xmlns="http://www.w3.org/2000/svg" width="24.464" height="24" viewBox="0 0 24.464 24">
  <g id="Calendar" transform="translate(-2.5 -3.4)">
    <g id="Group_10013" data-name="Group 10013" transform="translate(2.5 3.4)">
      <path id="Path_12850" data-name="Path 12850" d="M41.71,60.3H39.573a.775.775,0,0,0-.773.773v1.313a.775.775,0,0,0,.773.773H41.71a.775.775,0,0,0,.773-.773V61.073A.792.792,0,0,0,41.71,60.3Z" transform="translate(-29.452 -45.648)" fill="#fff"/>
      <path id="Path_12851" data-name="Path 12851" d="M20.31,60.3H18.173a.775.775,0,0,0-.773.773v1.313a.775.775,0,0,0,.773.773H20.31a.775.775,0,0,0,.773-.773V61.073A.792.792,0,0,0,20.31,60.3Z" transform="translate(-13.563 -45.648)" fill="#fff"/>
      <path id="Path_12852" data-name="Path 12852" d="M41.71,41.6H39.573a.775.775,0,0,0-.773.773v1.313a.775.775,0,0,0,.773.773H41.71a.775.775,0,0,0,.773-.773V42.373A.792.792,0,0,0,41.71,41.6Z" transform="translate(-29.452 -31.763)" fill="#fff"/>
      <path id="Path_12853" data-name="Path 12853" d="M20.31,41.6H18.173a.775.775,0,0,0-.773.773v1.313a.775.775,0,0,0,.773.773H20.31a.775.775,0,0,0,.773-.773V42.373A.792.792,0,0,0,20.31,41.6Z" transform="translate(-13.563 -31.763)" fill="#fff"/>
      <path id="Path_12854" data-name="Path 12854" d="M63.11,41.6H60.973a.775.775,0,0,0-.773.773v1.313a.775.775,0,0,0,.773.773H63.11a.775.775,0,0,0,.773-.773V42.373A.792.792,0,0,0,63.11,41.6Z" transform="translate(-45.342 -31.763)" fill="#fff"/>
      <path id="Path_12855" data-name="Path 12855" d="M24.878,18.284V8.061a2.575,2.575,0,0,0-.67-1.725V6.31h-.026a2.629,2.629,0,0,0-1.957-.876H20.294V4.276a.868.868,0,0,0-.876-.876H18.105a.868.868,0,0,0-.876.876V5.434H10.122V4.276A.868.868,0,0,0,9.247,3.4H7.933a.868.868,0,0,0-.876.876V5.434H5.127A2.629,2.629,0,0,0,3.17,6.31h0v.026A2.575,2.575,0,0,0,2.5,8.061V22.1a2.638,2.638,0,0,0,2.627,2.627H17.461a5.042,5.042,0,1,0,7.416-6.438Zm-8.009,4.069a5,5,0,0,0,.052.618H5.127a.868.868,0,0,1-.876-.876V11.383H23.1V17.46a4.53,4.53,0,0,0-1.185-.155A5.055,5.055,0,0,0,16.869,22.353ZM24,21.838l-2.086,2.24a.684.684,0,0,1-.979,0L19.7,22.739a.656.656,0,1,1,.953-.9l.773.824,1.6-1.725a.653.653,0,0,1,.927-.026A.633.633,0,0,1,24,21.838Z" transform="translate(-2.5 -3.4)" fill="#fff"/>
    </g>
  </g>
</svg>
