<svg xmlns="http://www.w3.org/2000/svg" width="33.02" height="30.22" viewBox="0 0 33.02 30.22">
  <g id="cart" transform="translate(0 -21.705)">
    <g id="Group_7" data-name="Group 7" transform="translate(22.027 43.691)">
      <g id="Group_6" data-name="Group 6">
        <path id="Path_12874" data-name="Path 12874" d="M345.664,362.612a4.117,4.117,0,1,0,4.117,4.117A4.122,4.122,0,0,0,345.664,362.612Zm0,5.764a1.647,1.647,0,1,1,1.647-1.647A1.649,1.649,0,0,1,345.664,368.376Z" transform="translate(-341.547 -362.612)" fill="#0e0b1d"/>
      </g>
    </g>
    <g id="Group_9" data-name="Group 9" transform="translate(0 21.705)">
      <g id="Group_8" data-name="Group 8" transform="translate(0 0)">
        <path id="Path_12875" data-name="Path 12875" d="M32.758,27.778a1.234,1.234,0,0,0-.972-.474H7.624L6.513,22.653a1.236,1.236,0,0,0-1.2-.948H1.235a1.235,1.235,0,1,0,0,2.47h3.1l4.014,16.8a1.235,1.235,0,0,0,1.2.948H28.78a1.235,1.235,0,0,0,1.2-.938l3.006-12.146A1.237,1.237,0,0,0,32.758,27.778ZM27.813,39.45H10.527L8.215,29.775H30.207Z" transform="translate(0 -21.705)" fill="#0e0b1d"/>
      </g>
    </g>
    <g id="Group_11" data-name="Group 11" transform="translate(7.082 43.691)">
      <g id="Group_10" data-name="Group 10">
        <path id="Path_12876" data-name="Path 12876" d="M113.923,362.612a4.117,4.117,0,1,0,4.117,4.117A4.122,4.122,0,0,0,113.923,362.612Zm0,5.764a1.647,1.647,0,1,1,1.647-1.647A1.649,1.649,0,0,1,113.923,368.376Z" transform="translate(-109.806 -362.612)" fill="#0e0b1d"/>
      </g>
    </g>
  </g>
</svg>
