<svg xmlns="http://www.w3.org/2000/svg" width="22.857" height="20" viewBox="0 0 22.857 20">
  <g id="favorite" transform="translate(0.012 -31.967)" fill="none">
    <path d="M20.626,33.334a6.1,6.1,0,0,0-8.33.607l-.879.906-.879-.906a6.1,6.1,0,0,0-8.33-.607,6.41,6.41,0,0,0-.442,9.281L10.4,51.535a1.4,1.4,0,0,0,2.022,0l8.638-8.919A6.406,6.406,0,0,0,20.626,33.334Z" stroke="none"/>
    <path d="M 5.950956344604492 33.66680145263672 C 4.961055755615234 33.66680145263672 4.047706604003906 33.99925994873047 3.310625076293945 34.62739181518555 C 2.330085754394531 35.46427917480469 1.755685806274414 36.64508056640625 1.693225860595703 37.9522705078125 C 1.631185531616211 39.25053024291992 2.102725982666016 40.51937866210938 2.986215591430664 41.4327392578125 L 11.41441535949707 50.13534164428711 L 19.84294509887695 41.43239212036133 C 20.7283763885498 40.51865005493164 21.20095634460449 39.25020217895508 21.13951683044434 37.95228958129883 C 21.07764625549316 36.64529037475586 20.50343704223633 35.46448135375977 19.52364540100098 34.62823104858398 C 18.78558540344238 33.99925994873047 17.87274551391602 33.66680145263672 16.88381576538086 33.66680145263672 C 15.64193534851074 33.66680145263672 14.41472625732422 34.19813919067383 13.51607608795166 35.12537002563477 L 11.41664600372314 37.28876113891602 L 9.315265655517578 35.12335968017578 C 8.419925689697266 34.19770050048828 7.193675994873047 33.66680145263672 5.950956344604492 33.66680145263672 M 5.950952529907227 31.96680068969727 C 7.615170478820801 31.96680068969727 9.292619705200195 32.65473175048828 10.53719615936279 33.94145965576172 L 11.41664600372314 34.84770202636719 L 12.2960958480835 33.94145965576172 C 14.54159641265869 31.62453079223633 18.17991638183594 31.24955368041992 20.62629699707031 33.33433151245117 C 23.4298152923584 35.72714996337891 23.57713508605957 40.02170944213867 21.06378555297852 42.61540985107422 L 12.42555618286133 51.53488922119141 C 11.8675365447998 52.11077117919922 10.96129608154297 52.11077117919922 10.40327644348145 51.53488922119141 L 1.765035629272461 42.61540985107422 C -0.7438430786132812 40.02170944213867 -0.5965232849121094 35.72714996337891 2.206996917724609 33.33433151245117 C 3.294757843017578 32.40735244750977 4.61851692199707 31.96680068969727 5.950952529907227 31.96680068969727 Z" stroke="none" fill="#222"/>
  </g>
</svg>
