<svg xmlns="http://www.w3.org/2000/svg" width="30" height="30" viewBox="0 0 30 30">
  <g id="consultations" transform="translate(-2 -2)">
    <g id="_64-Interview" data-name="64-Interview" transform="translate(2 2)">
      <path id="Path_12965" data-name="Path 12965" d="M5.214,18.071A4.286,4.286,0,1,1,9.5,22.357,4.286,4.286,0,0,1,5.214,18.071Zm7.5,5.357H6.286A4.286,4.286,0,0,0,2,27.714v3.214A1.071,1.071,0,0,0,3.071,32H15.929A1.071,1.071,0,0,0,17,30.929V27.714A4.286,4.286,0,0,0,12.714,23.429ZM32,5.214v6.429a3.214,3.214,0,0,1-3.214,3.214H24.854l-4,3A1.074,1.074,0,0,1,19.143,17V14.857H15.929a3.214,3.214,0,0,1-3.214-3.214V5.214A3.214,3.214,0,0,1,15.929,2H28.786A3.214,3.214,0,0,1,32,5.214ZM19.143,8.429A1.071,1.071,0,1,0,18.071,9.5,1.071,1.071,0,0,0,19.143,8.429Zm4.286,0A1.071,1.071,0,1,0,22.357,9.5,1.071,1.071,0,0,0,23.429,8.429Zm4.286,0A1.071,1.071,0,1,0,26.643,9.5,1.071,1.071,0,0,0,27.714,8.429Zm2.143,12.857A3.214,3.214,0,1,0,26.643,24.5a3.214,3.214,0,0,0,3.214-3.214Zm-1.071,4.286H24.5a3.214,3.214,0,0,0-3.214,3.214v2.143A1.071,1.071,0,0,0,22.357,32h8.571A1.071,1.071,0,0,0,32,30.929V28.786A3.214,3.214,0,0,0,28.786,25.571Z" transform="translate(-2 -2)" fill="#fff"/>
    </g>
  </g>
</svg>
