<svg xmlns="http://www.w3.org/2000/svg" width="26.666" height="16" viewBox="0 0 26.666 16">
  <path id="courses_num" data-name="courses num" d="M25.935,67.714,14.313,64.143a3.328,3.328,0,0,0-1.95,0L.741,67.714a.981.981,0,0,0,0,1.9l2.026.622a3.283,3.283,0,0,0-.745,1.954A1.286,1.286,0,0,0,1.916,74.4L.852,79.186A.667.667,0,0,0,1.5,80H3.84a.667.667,0,0,0,.651-.811L3.427,74.4a1.282,1.282,0,0,0-.075-2.188,1.966,1.966,0,0,1,.862-1.53l8.149,2.5a3.332,3.332,0,0,0,1.95,0l11.623-3.571A.981.981,0,0,0,25.935,67.714ZM14.7,74.46a4.664,4.664,0,0,1-2.733,0L5.929,72.6l-.591,4.727c0,1.473,3.582,2.667,8,2.667s8-1.194,8-2.667L20.747,72.6Z" transform="translate(-0.005 -63.998)" fill="#b4b4b4"/>
</svg>
