<svg xmlns="http://www.w3.org/2000/svg" width="50.4" height="50.4" viewBox="0 0 50.4 50.4">
  <g id="courses" transform="translate(0.2 0.2)">
    <g id="Group_11359" data-name="Group 11359">
      <path id="Path_13134" data-name="Path 13134" d="M45,19.6V5a2.5,2.5,0,0,0-2.5-2.5h-.833a2.5,2.5,0,0,0-2.5-2.5H25a3.312,3.312,0,0,0-2.5,1.152A3.312,3.312,0,0,0,20,0H5.833a2.5,2.5,0,0,0-2.5,2.5H2.5A2.5,2.5,0,0,0,0,5V35.833a2.5,2.5,0,0,0,2.5,2.5H30V42.5A7.509,7.509,0,0,0,37.5,50h5A7.509,7.509,0,0,0,50,42.5V26.667A7.506,7.506,0,0,0,45,19.6ZM41.667,4.167H42.5A.834.834,0,0,1,43.333,5V19.216a7.5,7.5,0,0,0-.833-.049h-.833ZM8.333,1.667h5V12.624l-1.849-2.312a.833.833,0,0,0-1.3,0L8.333,12.624ZM5,2.5a.834.834,0,0,1,.833-.833h.833V15a.833.833,0,0,0,1.484.52l2.683-3.353,2.683,3.353A.833.833,0,0,0,15,15V1.667h5a1.668,1.668,0,0,1,1.667,1.667V30.515A3.286,3.286,0,0,0,19.921,30H5ZM5,31.666H19.921a1.794,1.794,0,0,1,1.726,1.667H5Zm25,5H2.5a.834.834,0,0,1-.833-.833V5A.834.834,0,0,1,2.5,4.167h.833v30A.833.833,0,0,0,4.167,35H30Zm0-3.333H23.353a1.8,1.8,0,0,1,1.73-1.667H30ZM30,30H25.083a3.292,3.292,0,0,0-1.75.516V3.333A1.668,1.668,0,0,1,25,1.667H39.167A.834.834,0,0,1,40,2.5V19.166H37.5a7.509,7.509,0,0,0-7.5,7.5Zm9.167-9.167V31.666h-7.5v-5A5.84,5.84,0,0,1,37.5,20.833ZM48.333,42.5A5.84,5.84,0,0,1,42.5,48.333h-5A5.84,5.84,0,0,1,31.667,42.5V33.333H48.333V42.5Zm0-10.833h-7.5V20.833H42.5a5.84,5.84,0,0,1,5.833,5.833Z" fill="#af151f" stroke="#af151f" stroke-width="0.4"/>
    </g>
  </g>
</svg>
