<svg xmlns="http://www.w3.org/2000/svg" width="26.848" height="24" viewBox="0 0 26.848 24">
  <g id="dark" transform="translate(-27.996 -18.17)">
    <path id="Path_15039" data-name="Path 15039" d="M190.834,58.929h-1.952V56.976a.976.976,0,0,0-1.953,0v1.953h-1.952a.976.976,0,1,0,0,1.953h1.952v1.953a.976.976,0,0,0,1.953,0V60.881h1.952a.976.976,0,1,0,0-1.953Z" transform="translate(-136.967 -34.82)" fill="#fff" opacity="0.3"/>
    <path id="Path_15040" data-name="Path 15040" d="M144.86,19.438h.86v.86a.86.86,0,0,0,1.719,0v-.86h.86a.86.86,0,0,0,0-1.719h-.86v-.86a.86.86,0,0,0-1.719,0v.86h-.86a.86.86,0,0,0,0,1.719Z" transform="translate(-102.157 2.17)" fill="#fff" opacity="0.3"/>
    <path id="Path_15041" data-name="Path 15041" d="M50.994,45.165a.975.975,0,0,0-.263.043,10.254,10.254,0,0,1-12.6-12.614.976.976,0,0,0-1.216-1.216A12.2,12.2,0,1,0,51.956,46.416a.976.976,0,0,0-.962-1.251Z" transform="translate(0 -13.168)" fill="#fff"/>
  </g>
</svg>
