<svg xmlns="http://www.w3.org/2000/svg" width="30" height="34.286" viewBox="0 0 30 34.286">
  <path id="docs" d="M21.429,30v2.679a1.607,1.607,0,0,1-1.607,1.607H1.607A1.607,1.607,0,0,1,0,32.679V8.036A1.607,1.607,0,0,1,1.607,6.429H6.429V26.25A3.754,3.754,0,0,0,10.179,30Zm0-23.036V0H10.179A1.607,1.607,0,0,0,8.571,1.607V26.25a1.607,1.607,0,0,0,1.607,1.607H28.393A1.607,1.607,0,0,0,30,26.25V8.571H23.036A1.612,1.612,0,0,1,21.429,6.964Zm8.1-2.078L25.114.471A1.607,1.607,0,0,0,23.977,0h-.406V6.429H30V6.023a1.607,1.607,0,0,0-.471-1.136Z" fill="#be1622"/>
</svg>
