<svg id="download_" data-name="download " xmlns="http://www.w3.org/2000/svg" width="18.75" height="20" viewBox="0 0 18.75 20">
  <g id="Group_2242" data-name="Group 2242" transform="translate(4.375)">
    <g id="Group_2241" data-name="Group 2241" transform="translate(0)">
      <path id="Path_1066" data-name="Path 1066" d="M137.942,9.116a.623.623,0,0,0-.569-.366h-2.5V.625A.625.625,0,0,0,134.248,0h-2.5a.625.625,0,0,0-.625.625V8.75h-2.5a.625.625,0,0,0-.47,1.036l4.375,5a.624.624,0,0,0,.94,0l4.375-5A.623.623,0,0,0,137.942,9.116Z" transform="translate(-127.998)" fill="#af151f"/>
    </g>
  </g>
  <g id="Group_2244" data-name="Group 2244" transform="translate(0 13.75)">
    <g id="Group_2243" data-name="Group 2243" transform="translate(0)">
      <path id="Path_1067" data-name="Path 1067" d="M32.25,352v3.75H18.5V352H16v5a1.25,1.25,0,0,0,1.25,1.25H33.5A1.249,1.249,0,0,0,34.75,357v-5Z" transform="translate(-16 -352)" fill="#af151f"/>
    </g>
  </g>
</svg>
