<svg xmlns="http://www.w3.org/2000/svg" width="19.44" height="20" viewBox="0 0 19.44 20">
  <path id="enroll" d="M7.982,19.27a2.564,2.564,0,0,1-.73-1.77h5a2.494,2.494,0,0,1-2.5,2.5A2.5,2.5,0,0,1,7.982,19.27ZM1.94,16.25a.938.938,0,0,1-.733-1.524L1.79,14A7.826,7.826,0,0,0,3.5,9.117v-1.3a5.94,5.94,0,0,1,5-5.864v-.7a1.25,1.25,0,0,1,2.5,0v.7a5.94,5.94,0,0,1,5,5.864v1.3A7.836,7.836,0,0,0,17.713,14l.581.726a.938.938,0,0,1-.73,1.524ZM5.377,7.813v1.3a9.7,9.7,0,0,1-1.55,5.258H15.678a9.7,9.7,0,0,1-1.552-5.258v-1.3A4.064,4.064,0,0,0,10.065,3.75H9.439A4.064,4.064,0,0,0,5.377,7.813ZM0,9.1A11.13,11.13,0,0,1,3.26,1.24.73.73,0,0,1,3.77,1a.811.811,0,0,1,.54.19.759.759,0,0,1,.25.52.717.717,0,0,1-.2.54A9.681,9.681,0,0,0,1.5,9.1.75.75,0,0,1,0,9.1ZM17.93,9.05a9.579,9.579,0,0,0-2.81-6.8.752.752,0,0,1,1.04-1.08,11.149,11.149,0,0,1,3.28,7.88.755.755,0,0,1-1.51,0Z" fill="#222"/>
</svg>
