<svg xmlns="http://www.w3.org/2000/svg" width="19.44" height="20" viewBox="0 0 19.44 20">
  <path id="enrolled" d="M7.98,19.27a2.564,2.564,0,0,1-.73-1.77h5A2.494,2.494,0,0,1,9.75,20,2.5,2.5,0,0,1,7.98,19.27ZM2.25,16.25a1.251,1.251,0,0,1-.934-2.083l.29-.324A7.5,7.5,0,0,0,3.5,8.86V8.125A6.219,6.219,0,0,1,8.5,2V1.25a1.25,1.25,0,0,1,2.5,0V2a6.254,6.254,0,0,1,5,6.125V8.86a7.512,7.512,0,0,0,1.895,4.984l.289.324a1.251,1.251,0,0,1-.933,2.083ZM0,9.1A11.13,11.13,0,0,1,3.26,1.24.73.73,0,0,1,3.77,1a.811.811,0,0,1,.54.19.759.759,0,0,1,.25.52.717.717,0,0,1-.2.54A9.681,9.681,0,0,0,1.5,9.1.75.75,0,0,1,0,9.1ZM17.93,9.05a9.579,9.579,0,0,0-2.81-6.8.752.752,0,0,1,1.04-1.08,11.149,11.149,0,0,1,3.28,7.88.755.755,0,0,1-1.51,0Z" fill="#222"/>
</svg>
