<svg xmlns="http://www.w3.org/2000/svg" width="100" height="100" viewBox="0 0 100 100">
  <g id="error" transform="translate(0.312 0.143)">
    <g id="Group_11910" data-name="Group 11910" transform="translate(-0.312 -0.239)">
      <circle id="Ellipse_262" data-name="Ellipse 262" cx="50" cy="50" r="50" transform="translate(0 0.096)" fill="#e6a0a5"/>
    </g>
    <path id="exclamation-solid" d="M31.625,42.188a7.812,7.812,0,1,1-7.812-7.812A7.821,7.821,0,0,1,31.625,42.188ZM16.9,2.461l1.328,26.562a2.344,2.344,0,0,0,2.341,2.227h6.479a2.344,2.344,0,0,0,2.341-2.227L30.721,2.461A2.344,2.344,0,0,0,28.38,0H19.245A2.344,2.344,0,0,0,16.9,2.461Z" transform="translate(25.688 24.857)" fill="#fff"/>
  </g>
</svg>
