<svg xmlns="http://www.w3.org/2000/svg" width="44.178" height="50.4" viewBox="0 0 44.178 50.4">
  <g id="experience" transform="translate(0.2 0.2)">
    <g id="Group_11353" data-name="Group 11353" transform="translate(0)">
      <path id="Path_13118" data-name="Path 13118" d="M406.421.258l.866,2.436a.391.391,0,0,0,.2.229l2.164.975a.432.432,0,0,1,0,.763l-2.164.975a.391.391,0,0,0-.2.229L406.421,8.3a.351.351,0,0,1-.678,0l-.866-2.436a.391.391,0,0,0-.2-.229l-2.164-.975a.432.432,0,0,1,0-.763l2.164-.975a.391.391,0,0,0,.2-.229l.866-2.436A.351.351,0,0,1,406.421.258Z" transform="translate(-366.106)" fill="#af151f" stroke="#af151f" stroke-width="0.4"/>
      <circle id="Ellipse_211" data-name="Ellipse 211" cx="1.402" cy="1.402" r="1.402" transform="translate(5.625 1.295)" fill="#af151f" stroke="#af151f" stroke-width="0.4"/>
      <circle id="Ellipse_212" data-name="Ellipse 212" cx="0.816" cy="0.816" r="0.816" transform="translate(0 6.699)" fill="#af151f" stroke="#af151f" stroke-width="0.4"/>
    </g>
    <g id="Group_11354" data-name="Group 11354" transform="translate(1.909 7.212)">
      <path id="Path_13119" data-name="Path 13119" d="M86.015,79.157h-.17V77.113a3.269,3.269,0,0,0-3.266-3.266h-.028a3.269,3.269,0,0,0-3.266,3.266v2.044H77.732V77.113a3.269,3.269,0,0,0-3.266-3.266h-.028a3.269,3.269,0,0,0-3.266,3.266v2.044H69.618v-2.03a3.28,3.28,0,1,0-6.559,0v2.03H61.5V77.113a3.269,3.269,0,0,0-3.266-3.266h-.028a3.269,3.269,0,0,0-3.266,3.266v2.044h-.219A3.327,3.327,0,0,0,51.4,82.48V87.8a3.318,3.318,0,0,0,1.243,2.589V109.42a7.223,7.223,0,0,0,7.215,7.215H80.93a7.223,7.223,0,0,0,7.215-7.215V90.346A3.317,3.317,0,0,0,89.339,87.8V82.48a3.327,3.327,0,0,0-3.323-3.323Zm-4.768-2.044a1.306,1.306,0,0,1,1.3-1.3h.028a1.306,1.306,0,0,1,1.3,1.3V82.2a1.306,1.306,0,0,1-1.3,1.3h-.028a1.306,1.306,0,0,1-1.3-1.3Zm-8.114,0a1.306,1.306,0,0,1,1.3-1.3h.028a1.306,1.306,0,0,1,1.3,1.3V82.2a1.306,1.306,0,0,1-1.3,1.3h-.028a1.306,1.306,0,0,1-1.3-1.3Zm-8.114.014a1.318,1.318,0,1,1,2.636,0v5.064a1.318,1.318,0,0,1-2.636,0Zm-8.114-.014a1.306,1.306,0,0,1,1.3-1.3h.028a1.306,1.306,0,0,1,1.3,1.3V82.2a1.306,1.306,0,0,1-1.3,1.3h-.028a1.306,1.306,0,0,1-1.3-1.3ZM53.364,82.48a1.364,1.364,0,0,1,1.362-1.362h.219V82.2a3.269,3.269,0,0,0,3.266,3.266h.028A3.269,3.269,0,0,0,61.5,82.2V81.118h1.555v1.073a3.28,3.28,0,0,0,6.559,0V81.118h1.555V82.2a3.269,3.269,0,0,0,3.266,3.266h.028A3.269,3.269,0,0,0,77.732,82.2V81.118h1.555V82.2a3.269,3.269,0,0,0,3.266,3.266h.028A3.269,3.269,0,0,0,85.845,82.2V81.118h.17a1.364,1.364,0,0,1,1.362,1.362V87.8a1.364,1.364,0,0,1-1.362,1.362H54.726A1.364,1.364,0,0,1,53.364,87.8Zm32.819,26.94a5.259,5.259,0,0,1-5.254,5.254H59.861a5.259,5.259,0,0,1-5.254-5.254v-18.3c.04,0,.079,0,.119,0H86.015q.085,0,.168,0Z" transform="translate(-51.403 -73.847)" fill="#af151f" stroke="#af151f" stroke-width="0.4"/>
      <path id="Path_13120" data-name="Path 13120" d="M217.732,290.671h-2.558a.981.981,0,1,0,0,1.961h1.577v10.987a.981.981,0,1,0,1.961,0V291.652a.981.981,0,0,0-.981-.981Z" transform="translate(-198.296 -269.497)" fill="#af151f" stroke="#af151f" stroke-width="0.4"/>
    </g>
  </g>
</svg>
