<svg xmlns="http://www.w3.org/2000/svg" width="27.429" height="24" viewBox="0 0 27.429 24">
  <g id="favorite" transform="translate(0.012 -31.967)" fill="none">
    <path d="M24.754,33.608a7.326,7.326,0,0,0-10,.729L13.7,35.424l-1.055-1.087a7.325,7.325,0,0,0-10-.729,7.692,7.692,0,0,0-.53,11.137l10.366,10.7a1.679,1.679,0,0,0,2.427,0l10.366-10.7A7.687,7.687,0,0,0,24.754,33.608Z" stroke="none"/>
    <path d="M 7.143587112426758 33.66680145263672 C 5.873798370361328 33.66680145263672 4.701517105102539 34.09383392333984 3.754478454589844 34.90089416503906 C 2.505697250366211 35.96673202514648 1.774187088012695 37.46976470947266 1.694707870483398 39.13312149047852 C 1.61579704284668 40.78439331054688 2.216358184814453 42.39908218383789 3.341678619384766 43.56245422363281 L 13.69974803924561 54.25777053833008 L 24.05815887451172 43.56210327148438 C 25.18575859069824 42.39845275878906 25.78764724731445 40.78421401977539 25.70949745178223 39.13330459594727 C 25.63076782226562 37.47011184692383 24.89948844909668 35.96701431274414 23.6513671875 34.9017333984375 C 22.70332717895508 34.09383392333984 21.53166770935059 33.66680145263672 20.26298904418945 33.66680145263672 C 18.68126678466797 33.66680145263672 17.11963653564453 34.34209442138672 15.97773742675781 35.52031326293945 L 13.70242786407471 37.86492156982422 L 11.42515754699707 35.51829147338867 C 10.28705787658691 34.34164428710938 8.726478576660156 33.66680145263672 7.143587112426758 33.66680145263672 M 7.143590927124023 31.966796875 C 9.140651702880859 31.966796875 11.15360069274902 32.79232406616211 12.64708805084229 34.33639144897461 L 13.70242786407471 35.42387390136719 L 14.75776767730713 34.33639144897461 C 17.45235824584961 31.55608367919922 21.8183479309082 31.10609436035156 24.75400733947754 33.60783386230469 C 28.11823844909668 36.47921371459961 28.29501724243164 41.63268280029297 25.27899742126465 44.74512481689453 L 14.91311740875244 55.44850158691406 C 14.24348926544189 56.13956451416016 13.15600776672363 56.13956451416016 12.48637771606445 55.44850158691406 L 2.120498657226562 44.74512481689453 C -0.8901615142822266 41.63268280029297 -0.7133827209472656 36.47921371459961 2.650848388671875 33.60783386230469 C 3.95616340637207 32.49545669555664 5.544668197631836 31.966796875 7.143590927124023 31.966796875 Z" stroke="none" fill="#222"/>
  </g>
</svg>
