<svg xmlns="http://www.w3.org/2000/svg" width="22" height="23.851" viewBox="0 0 22 23.851">
  <g id="files" transform="translate(-528 -458.66)">
    <rect id="Rectangle_4153" data-name="Rectangle 4153" width="11.124" height="1.186" transform="translate(535.905 466.989)" fill="#b20016"/>
    <rect id="Rectangle_4154" data-name="Rectangle 4154" width="8.396" height="1.186" transform="translate(538.632 469.952)" fill="#b20016"/>
    <rect id="Rectangle_4155" data-name="Rectangle 4155" width="6.421" height="1.186" transform="translate(540.607 472.915)" fill="#b20016"/>
    <path id="Path_15441" data-name="Path 15441" d="M550.044,464.014v13.35a2.07,2.07,0,0,1-2.039,2.078H534.269a2.07,2.07,0,0,1-2.039-2.078V460.738a2.064,2.064,0,0,1,2.039-2.078H544.69Z" transform="translate(-0.044 0)" fill="#b20016" opacity="0.25"/>
    <path id="Path_15442" data-name="Path 15442" d="M550.174,464.014H544.82V458.66Z" transform="translate(-0.174 0)" fill="#b20016"/>
    <path id="Path_15443" data-name="Path 15443" d="M545.269,479.485v1.089a1.979,1.979,0,0,1-1.979,1.979H529.979A1.979,1.979,0,0,1,528,480.574V464.739a1.973,1.973,0,0,1,1.979-1.979h2.207v14.647a2.07,2.07,0,0,0,2.039,2.078Z" transform="translate(0 -0.042)" fill="#b20016"/>
  </g>
</svg>
