<svg xmlns="http://www.w3.org/2000/svg" width="24.648" height="27.208" viewBox="0 0 24.648 27.208">
  <g id="filter" transform="translate(86.252 -109.198) rotate(90)">
    <path id="Path_34330" data-name="Path 34330" d="M274.632,73.455V84.894a1.356,1.356,0,0,0,1.39,1.359,1.376,1.376,0,0,0,1.39-1.359V73.455a4.341,4.341,0,0,0,0-8.279V62.964a1.356,1.356,0,0,0-1.39-1.359,1.376,1.376,0,0,0-1.39,1.359v2.212a4.4,4.4,0,0,0-3.034,4.14A4.489,4.489,0,0,0,274.632,73.455Zm-.253-4.14a1.643,1.643,0,1,1,1.643,1.643A1.632,1.632,0,0,1,274.379,69.315Z" transform="translate(-153.236 -0.001)"/>
    <path id="Path_34331" data-name="Path 34331" d="M112.232,82.586v2.307a1.391,1.391,0,0,0,2.781,0V82.586a4.341,4.341,0,0,0,0-8.279V62.963a1.391,1.391,0,0,0-2.781,0V74.307a4.341,4.341,0,0,0,0,8.279Zm-.284-4.14a1.643,1.643,0,1,1,1.643,1.643A1.7,1.7,0,0,1,111.947,78.446Z"/>
    <path id="Path_34332" data-name="Path 34332" d="M437.592,82.586v2.307a1.356,1.356,0,0,0,1.39,1.359,1.376,1.376,0,0,0,1.39-1.359V82.586a4.341,4.341,0,0,0,0-8.279V62.963a1.356,1.356,0,0,0-1.39-1.359,1.376,1.376,0,0,0-1.39,1.359V74.307a4.341,4.341,0,0,0,0,8.279Zm-.284-4.14a1.643,1.643,0,1,1,1.643,1.643A1.632,1.632,0,0,1,437.307,78.446Z" transform="translate(-307)"/>
  </g>
</svg>
