<svg id="gift" xmlns="http://www.w3.org/2000/svg" width="39.193" height="39.779" viewBox="0 0 39.193 39.779">
  <g id="Group_10871" data-name="Group 10871">
    <path id="Path_12969" data-name="Path 12969" d="M39.881,11.251H36.447A6.209,6.209,0,0,0,30.752,2.5c-4.187,0-6.281,2.387-7.956,5.192C21.122,4.887,19.028,2.5,14.841,2.5a6.209,6.209,0,0,0-5.695,8.751H5.712A2.52,2.52,0,0,0,3.2,13.764v5.108a1.215,1.215,0,0,0,1.214,1.214H41.179a1.215,1.215,0,0,0,1.214-1.214V13.764A2.52,2.52,0,0,0,39.881,11.251ZM30.752,6.227a2.512,2.512,0,1,1,0,5.025H25.058C26.9,7.86,27.989,6.227,30.752,6.227ZM12.328,8.739a2.52,2.52,0,0,1,2.512-2.512c2.764,0,3.852,1.633,5.695,5.025H14.841A2.52,2.52,0,0,1,12.328,8.739Z" transform="translate(-3.2 -2.5)" fill="#af151f"/>
    <path id="Path_12970" data-name="Path 12970" d="M9.2,68.767a3.092,3.092,0,0,0,3.1,3.1H24.442V53.4H9.2Z" transform="translate(-6.688 -32.087)" fill="#af151f"/>
    <path id="Path_12971" data-name="Path 12971" d="M54.4,71.866H66.543a3.092,3.092,0,0,0,3.1-3.1V53.4H54.4Z" transform="translate(-32.961 -32.087)" fill="#af151f"/>
  </g>
</svg>
