<svg id="google" xmlns="http://www.w3.org/2000/svg" width="24" height="24" viewBox="0 0 24 24">
  <path id="Path_13180" data-name="Path 13180" d="M12,5a6.962,6.962,0,0,1,4.286,1.474L19.923,3A11.977,11.977,0,0,0,1.386,6.41L5.43,9.6A7,7,0,0,1,12,5Z" fill="#ea4335"/>
  <path id="Path_13181" data-name="Path 13181" d="M23.9,13.5A11.9,11.9,0,0,0,24,12a12.035,12.035,0,0,0-.265-2.5H12v5h6.486a7.072,7.072,0,0,1-2.648,3.319l4.059,3.2A11.987,11.987,0,0,0,23.9,13.5Z" fill="#4285f4"/>
  <path id="Path_13182" data-name="Path 13182" d="M5,12a6.971,6.971,0,0,1,.43-2.4L1.386,6.41a11.958,11.958,0,0,0-.028,11.123l4.05-3.2A6.972,6.972,0,0,1,5,12Z" fill="#fbbc05"/>
  <path id="Path_13183" data-name="Path 13183" d="M12,19a7,7,0,0,1-6.592-4.664l-4.05,3.2A11.981,11.981,0,0,0,19.9,21.024l-4.059-3.2A6.831,6.831,0,0,1,12,19Z" fill="#34a853"/>
</svg>
