<svg xmlns="http://www.w3.org/2000/svg" width="32" height="23.714" viewBox="0 0 32 23.714">
  <g id="Health" transform="translate(-64.5 -12.79)">
    <g id="Group_11938" data-name="Group 11938" transform="translate(64.5 12.79)">
      <path id="Path_15097" data-name="Path 15097" d="M80.8,36.5s-7.492-4.663-10.964-9.942H65.158a.735.735,0,0,1,0-1.462h7.894a1.117,1.117,0,0,0,.731-.292L74.66,23.2l2.047,7.163a.669.669,0,0,0,1.316,0l3.07-9.033,2.485,6.109a.642.642,0,0,0,1.169.146L86.5,25.1h3.07a.732.732,0,1,0,0-1.462H86.062a.783.783,0,0,0-.585.439l-1.023,1.608-2.777-6.84c-.146-.731-1.023-.731-1.316,0l-2.924,8.886-1.9-6.432a.711.711,0,0,0-1.316-.146l-1.462,2.485H67.935a4.125,4.125,0,0,1-.585-2.193c0-8.917,10.087-11.256,13.449-5.555,3.362-5.7,13.595-3.362,13.595,5.555C94.394,27,80.8,36.5,80.8,36.5Z" transform="translate(-64.5 -12.79)" fill="#fff"/>
      <rect id="Rectangle_3749" data-name="Rectangle 3749" width="2" height="5" transform="translate(30 10)" fill="#fff" opacity="0"/>
    </g>
  </g>
</svg>
