<svg xmlns="http://www.w3.org/2000/svg" width="26.427" height="28" viewBox="0 0 26.427 28">
  <g id="home" transform="translate(-8.501 -7.103)">
    <path id="Path_15126" data-name="Path 15126" d="M13.068,28.539V39.355a.493.493,0,0,0,.493.493H25.169V30.054h5.453v9.794h3.244a.492.492,0,0,0,.493-.493V28.539L23.72,17.945Zm8.657,6.078H16.8V30.054h4.921Z" transform="translate(-1.999 -4.745)" fill="#fff"/>
    <path id="Path_15127" data-name="Path 15127" d="M34.517,19.9,21.715,7.1l-6.039,6.039V10.484a1.125,1.125,0,0,0-2.249,0v4.907L8.913,19.9A1.406,1.406,0,0,0,10.9,21.893L21.716,11.08,32.529,21.892A1.406,1.406,0,0,0,34.517,19.9Z" transform="translate(0)" fill="#fff"/>
  </g>
</svg>
