<svg xmlns="http://www.w3.org/2000/svg" width="89.302" height="40" viewBox="0 0 89.302 40">
  <g id="infinity" transform="translate(0 -141.333)">
    <g id="Group_10119" data-name="Group 10119" transform="translate(0 141.333)">
      <path id="Path_12885" data-name="Path 12885" d="M69.209,141.333a19.851,19.851,0,0,0-14.046,5.712l-10.512,9.3-.019-.019L39,161.3l.037.037L29,170.226a12.588,12.588,0,1,1-8.912-21.451,12.712,12.712,0,0,1,9.079,3.832l4.223,3.74,5.619-4.967-4.707-4.167a19.99,19.99,0,1,0-.167,28.428l10.512-9.321.019.019,5.619-4.986-.019-.019L60.3,152.459a12.582,12.582,0,1,1,8.912,21.432,12.769,12.769,0,0,1-9.079-3.814l-4.223-3.74-5.619,4.986L55,175.491a20.053,20.053,0,1,0,14.214-34.158Z" transform="translate(0 -141.333)" fill="#af151f"/>
    </g>
  </g>
</svg>
