<svg xmlns="http://www.w3.org/2000/svg" width="21.254" height="9.686" viewBox="0 0 21.254 9.686">
  <g id="infinity" transform="translate(-447.813 -266.913)">
    <g id="infinity-solid">
      <g id="Path_15426" data-name="Path 15426">
        <path id="Path_15436" data-name="Path 15436" d="M464.49,266.92h-.53a6.613,6.613,0,0,0-4.77,2.49l-.75.93-.74-.93a6.617,6.617,0,0,0-4.78-2.49,4.842,4.842,0,1,0-.52,9.67,4.506,4.506,0,0,0,.52,0,6.606,6.606,0,0,0,4.78-2.48l.74-.94.75.94a6.567,6.567,0,0,0,4.77,2.48,4.842,4.842,0,1,0,.53-9.67Zm-7.35,5.41c-.73,1-2.25,2.68-4.12,2.7a3.219,3.219,0,0,1-2.35-.67,3.269,3.269,0,0,1-1.26-2.18,3.236,3.236,0,0,1,.66-2.42,3.3,3.3,0,0,1,2.18-1.27,3.22,3.22,0,0,1,.76,0h.05c1.83,0,3.34,1.69,4.08,2.7l.43.57Zm7.51,2.69h-.03a2.69,2.69,0,0,1-.4.03c-.12,0-.24-.01-.36-.02-1.88-.03-3.39-1.7-4.12-2.7l-.41-.57.41-.57c.75-1.01,2.28-2.7,4.17-2.7a3.127,3.127,0,0,1,2.31.67,3.287,3.287,0,0,1-1.57,5.86Z" fill="#c1121f"/>
      </g>
    </g>
    <g id="infinity-solid-2" data-name="infinity-solid" opacity="0.2">
      <g id="Path_15426-2" data-name="Path 15426">
        <path id="Path_15437" data-name="Path 15437" d="M469.06,272.02a4.836,4.836,0,0,1-5.1,4.57,6.567,6.567,0,0,1-4.77-2.48l-.75-.94-.74.94a6.606,6.606,0,0,1-4.78,2.48,4.506,4.506,0,0,1-.52,0,4.842,4.842,0,0,1,.52-9.67,6.617,6.617,0,0,1,4.78,2.49l.74.93.75-.93a6.613,6.613,0,0,1,4.77-2.49h.53A4.848,4.848,0,0,1,469.06,272.02Z" fill="#c1121f"/>
      </g>
    </g>
  </g>
</svg>
