<svg xmlns="http://www.w3.org/2000/svg" width="22" height="15.073" viewBox="0 0 22 15.073">
  <g id="responsive" transform="translate(-199.397 -148.21)">
    <path id="Path_15424" data-name="Path 15424" d="M213.759,152.589l.036,7.487H203.217V149.083h14.776v3.435Z" transform="translate(-0.244 -0.056)" fill="#c1121f" opacity="0.12"/>
    <path id="Union_8" data-name="Union 8" d="M218.57,151.683h-4.26a1.4,1.4,0,0,0-1.423,1.386V161.9a1.4,1.4,0,0,0,1.4,1.386h4.278a1.409,1.409,0,0,0,1.423-1.386v-8.828A1.4,1.4,0,0,0,218.57,151.683Zm-2.125,10.907a.7.7,0,0,1-.712-.693v-.009a.689.689,0,0,1,.693-.683h.037a.7.7,0,0,1,.693.693A.714.714,0,0,1,216.445,162.59Zm2.135-2.088h-4.26v-7.433h4.26Zm-1.432-12.292h-13.49a1.409,1.409,0,0,0-1.423,1.386v9.034h-1.91a.929.929,0,0,0-.927.927,1.846,1.846,0,0,0,1.854,1.854h11.862v-2.78h-9.456V149.6h13.49v2.331h1.423V149.6A1.4,1.4,0,0,0,217.147,148.21Z" fill="#c1121f"/>
    <path id="Union_8-2" data-name="Union 8" d="M222.309,159.34h-1.432v2.78h.506a1.846,1.846,0,0,0,1.854-1.854A.929.929,0,0,0,222.309,159.34Z" transform="translate(-1.839 -0.71)" fill="#c1121f"/>
    <rect id="Rectangle_4156" data-name="Rectangle 4156" width="5.617" height="8.426" transform="translate(213.421 152.424)" fill="#c1121f" opacity="0.35"/>
  </g>
</svg>
