<?xml version="1.0" encoding="UTF-8"?>
<svg xmlns="http://www.w3.org/2000/svg" xmlns:xlink="http://www.w3.org/1999/xlink" width="28px" height="28px" viewBox="0 0 28 28" version="1.1">
<g id="surface1">
<path style=" stroke:none;fill-rule:nonzero;fill:rgb(100%,100%,100%);fill-opacity:1;" d="M 16.75 5.621094 C 16.929688 5.667969 17.117188 5.699219 17.289062 5.765625 C 18.265625 6.132812 19.164062 7.234375 18.554688 8.746094 C 18.261719 9.472656 17.8125 10.101562 17.304688 10.691406 C 16.339844 11.816406 15.207031 12.765625 14.054688 13.695312 C 14.007812 13.730469 13.976562 13.75 13.925781 13.707031 C 12.511719 12.554688 11.105469 11.394531 10.042969 9.890625 C 9.6875 9.390625 9.394531 8.855469 9.261719 8.246094 C 8.992188 6.988281 9.875 6 10.804688 5.722656 C 10.917969 5.6875 11.042969 5.691406 11.148438 5.621094 C 11.308594 5.621094 11.464844 5.621094 11.621094 5.621094 C 11.675781 5.65625 11.734375 5.628906 11.789062 5.636719 C 12.152344 5.628906 12.464844 5.777344 12.765625 5.953125 C 13.132812 6.167969 13.417969 6.464844 13.664062 6.804688 C 13.679688 6.828125 13.695312 6.851562 13.710938 6.875 C 13.902344 7.144531 14.0625 7.144531 14.257812 6.867188 C 14.488281 6.539062 14.753906 6.25 15.089844 6.023438 C 15.429688 5.796875 15.796875 5.640625 16.210938 5.621094 C 16.234375 5.621094 16.253906 5.621094 16.277344 5.621094 C 16.402344 5.648438 16.523438 5.648438 16.648438 5.621094 C 16.683594 5.621094 16.714844 5.621094 16.75 5.621094 Z M 16.75 5.621094 "/>
<path style=" stroke:none;fill-rule:nonzero;fill:rgb(100%,100%,100%);fill-opacity:1;" d="M 5.347656 9.363281 C 5.355469 9.351562 5.367188 9.339844 5.375 9.324219 C 5.496094 9.015625 5.761719 8.847656 6.054688 8.898438 C 6.359375 8.957031 6.558594 9.203125 6.5625 9.539062 C 6.5625 10.753906 6.5625 11.96875 6.5625 13.183594 C 6.5625 13.410156 6.558594 13.640625 6.523438 13.871094 C 6.460938 14.277344 6.578125 14.644531 6.867188 14.9375 C 7.808594 15.886719 8.753906 16.832031 9.703125 17.777344 C 9.84375 17.917969 10.015625 17.921875 10.136719 17.796875 C 10.257812 17.671875 10.242188 17.503906 10.089844 17.351562 C 9.179688 16.4375 8.265625 15.523438 7.347656 14.609375 C 7.175781 14.4375 7.070312 14.242188 7.085938 13.996094 C 7.105469 13.695312 7.257812 13.472656 7.535156 13.355469 C 7.808594 13.242188 8.078125 13.277344 8.304688 13.480469 C 8.535156 13.683594 8.75 13.90625 8.96875 14.125 C 9.886719 15.027344 10.804688 15.933594 11.722656 16.835938 C 11.796875 16.90625 11.828125 16.976562 11.828125 17.082031 C 11.832031 18.761719 11.84375 20.441406 11.851562 22.121094 C 11.851562 22.644531 11.605469 22.894531 11.078125 22.894531 C 10.566406 22.894531 10.054688 22.894531 9.542969 22.894531 C 9.125 22.890625 8.855469 22.625 8.855469 22.210938 C 8.851562 21.417969 8.847656 20.625 8.847656 19.832031 C 8.847656 19.695312 8.816406 19.582031 8.71875 19.480469 C 7.621094 18.386719 6.523438 17.289062 5.425781 16.191406 C 5.40625 16.171875 5.390625 16.132812 5.347656 16.144531 C 5.347656 13.886719 5.347656 11.625 5.347656 9.363281 Z M 5.347656 9.363281 "/>
<path style=" stroke:none;fill-rule:nonzero;fill:rgb(100%,100%,100%);fill-opacity:1;" d="M 16.648438 5.621094 C 16.523438 5.671875 16.402344 5.675781 16.277344 5.621094 C 16.402344 5.621094 16.523438 5.621094 16.648438 5.621094 Z M 16.648438 5.621094 "/>
<path style=" stroke:none;fill-rule:nonzero;fill:rgb(100%,100%,100%);fill-opacity:1;" d="M 11.789062 5.621094 C 11.792969 5.628906 11.796875 5.636719 11.796875 5.648438 C 11.734375 5.664062 11.675781 5.664062 11.621094 5.621094 C 11.675781 5.621094 11.734375 5.621094 11.789062 5.621094 Z M 11.789062 5.621094 "/>
<path style=" stroke:none;fill-rule:nonzero;fill:rgb(100%,100%,100%);fill-opacity:1;" d="M 22.621094 12.753906 C 22.621094 13.824219 22.617188 14.890625 22.621094 15.960938 C 22.621094 16.070312 22.589844 16.144531 22.511719 16.222656 C 21.4375 17.292969 20.367188 18.371094 19.289062 19.441406 C 19.167969 19.558594 19.113281 19.6875 19.113281 19.855469 C 19.117188 20.632812 19.113281 21.40625 19.113281 22.183594 C 19.109375 22.632812 18.847656 22.890625 18.398438 22.890625 C 17.875 22.894531 17.351562 22.894531 16.828125 22.890625 C 16.382812 22.890625 16.113281 22.625 16.113281 22.179688 C 16.121094 20.472656 16.128906 18.761719 16.136719 17.054688 C 16.136719 16.976562 16.15625 16.917969 16.214844 16.863281 C 17.34375 15.753906 18.472656 14.636719 19.605469 13.527344 C 20 13.140625 20.613281 13.257812 20.824219 13.742188 C 20.945312 14.027344 20.878906 14.34375 20.632812 14.589844 C 20.191406 15.035156 19.75 15.472656 19.308594 15.914062 C 18.839844 16.382812 18.371094 16.851562 17.902344 17.324219 C 17.851562 17.375 17.789062 17.421875 17.769531 17.492188 C 17.730469 17.613281 17.746094 17.726562 17.847656 17.8125 C 17.949219 17.898438 18.0625 17.910156 18.175781 17.84375 C 18.222656 17.816406 18.265625 17.773438 18.304688 17.734375 C 19.214844 16.824219 20.125 15.914062 21.035156 15.003906 C 21.398438 14.640625 21.527344 14.210938 21.414062 13.710938 C 21.40625 13.671875 21.402344 13.632812 21.402344 13.59375 C 21.402344 12.226562 21.398438 10.859375 21.40625 9.496094 C 21.40625 9.039062 21.878906 8.753906 22.277344 8.957031 C 22.519531 9.078125 22.621094 9.285156 22.617188 9.550781 C 22.617188 10.621094 22.621094 11.6875 22.621094 12.753906 Z M 22.621094 12.753906 "/>
<path style=" stroke:none;fill-rule:nonzero;fill:rgb(100%,100%,100%);fill-opacity:1;" d="M 8.335938 12.820312 C 7.933594 12.671875 7.535156 12.6875 7.136719 12.910156 C 7.136719 12.683594 7.136719 12.480469 7.136719 12.273438 C 7.136719 11.800781 7.136719 11.328125 7.136719 10.855469 C 7.140625 10.480469 7.398438 10.210938 7.746094 10.210938 C 8.09375 10.210938 8.351562 10.480469 8.351562 10.855469 C 8.355469 11.496094 8.351562 12.140625 8.351562 12.78125 C 8.351562 12.789062 8.34375 12.800781 8.335938 12.820312 Z M 8.335938 12.820312 "/>
<path style=" stroke:none;fill-rule:nonzero;fill:rgb(100%,100%,100%);fill-opacity:1;" d="M 20.828125 12.90625 C 20.449219 12.707031 20.082031 12.667969 19.699219 12.800781 C 19.632812 12.824219 19.613281 12.804688 19.613281 12.734375 C 19.617188 12.070312 19.605469 11.40625 19.621094 10.746094 C 19.628906 10.441406 19.921875 10.203125 20.230469 10.210938 C 20.542969 10.214844 20.820312 10.460938 20.824219 10.78125 C 20.835938 11.484375 20.828125 12.183594 20.828125 12.90625 Z M 20.828125 12.90625 "/>
</g>
</svg>
