<svg xmlns="http://www.w3.org/2000/svg" width="18" height="18" viewBox="0 0 18 18">
  <path id="like" d="M3.656,7.875H.844A.844.844,0,0,0,0,8.719v8.438A.844.844,0,0,0,.844,18H3.656a.844.844,0,0,0,.844-.844V8.719A.844.844,0,0,0,3.656,7.875ZM2.25,16.594a.844.844,0,1,1,.844-.844A.844.844,0,0,1,2.25,16.594ZM13.5,2.864c0,1.491-.913,2.328-1.17,3.324h3.576A2.1,2.1,0,0,1,18,8.23a2.545,2.545,0,0,1-.683,1.73l0,0a2.937,2.937,0,0,1-.327,2.794,2.78,2.78,0,0,1-.576,2.628,1.866,1.866,0,0,1-.216,1.569c-.718,1.031-2.5,1.045-4,1.045h-.1a10.092,10.092,0,0,1-4.2-1.115,5.533,5.533,0,0,0-1.851-.569.422.422,0,0,1-.414-.422V8.379a.421.421,0,0,1,.125-.3C7.143,6.7,7.742,5.246,8.883,4.1a4.258,4.258,0,0,0,.893-2.071C9.932,1.381,10.259,0,10.969,0,11.813,0,13.5.281,13.5,2.864Z" opacity="0.2"/>
</svg>
