<svg xmlns="http://www.w3.org/2000/svg" width="38.599" height="28" viewBox="0 0 38.599 28">
  <g id="live" transform="translate(-77.398 1.591)">
    <path id="Path_12864" data-name="Path 12864" d="M212.717,90.529a3.146,3.146,0,1,1,0-4.444A3.153,3.153,0,0,1,212.717,90.529Zm0,0" transform="translate(-113.789 -75.898)" fill="#fff"/>
    <path id="Path_12865" data-name="Path 12865" d="M293.532,59.63a1.852,1.852,0,0,1-1.223-.445,1.385,1.385,0,0,1,0-2.141,5.789,5.789,0,0,0,0-8.959,1.385,1.385,0,0,1,0-2.141,1.905,1.905,0,0,1,2.444,0,8.559,8.559,0,0,1,0,13.246,1.854,1.854,0,0,1-1.221.442Zm0,0" transform="translate(-189.872 -40.155)" fill="#fff" stroke="#ff7900" stroke-width="0.7"/>
    <path id="Path_12866" data-name="Path 12866" d="M328.728,28a2.038,2.038,0,0,1-1.395-.54,1.754,1.754,0,0,1,0-2.6,14.622,14.622,0,0,0,0-21.717,1.754,1.754,0,0,1,0-2.6,2.071,2.071,0,0,1,2.787,0,18.132,18.132,0,0,1,0,26.925,2.039,2.039,0,0,1-1.392.537Zm0,0" transform="translate(-220.11 -1.594)" fill="#fff"/>
    <path id="Path_12867" data-name="Path 12867" d="M137.761,59.629a1.856,1.856,0,0,1-1.221-.442,8.559,8.559,0,0,1,0-13.246,1.9,1.9,0,0,1,2.444,0,1.385,1.385,0,0,1,0,2.141,5.789,5.789,0,0,0,0,8.959,1.385,1.385,0,0,1,0,2.141,1.854,1.854,0,0,1-1.223.445Zm0,0" transform="translate(-48.027 -40.154)" fill="#fff" stroke="#ff7900" stroke-width="0.7"/>
    <path id="Path_12868" data-name="Path 12868" d="M86.945,28a2.038,2.038,0,0,1-1.392-.538,18.132,18.132,0,0,1,0-26.925,2.071,2.071,0,0,1,2.787,0,1.754,1.754,0,0,1,0,2.6,14.623,14.623,0,0,0,0,21.717,1.754,1.754,0,0,1,0,2.6,2.038,2.038,0,0,1-1.394.54Zm0,0" transform="translate(-2.169 -1.592)" fill="#fff"/>
  </g>
</svg>
