<svg xmlns="http://www.w3.org/2000/svg" width="826.521" height="469.361" viewBox="0 0 826.521 469.361">
  <g id="ar-map" transform="translate(-4.681 -3.04)" opacity="0.06">
    <path id="Path_12894" data-name="Path 12894" d="M647.221,3.249c3.472-.757,6.888.741,10.287,1.273,1.627-.1,3.19-.644,4.817-.838,1.466.709.951,2.618,1.37,3.891,1.772-.733,3.625-2.94,5.671-1.877.918,1.168.83,2.8,1.224,4.189.338.29,1.015.878,1.345,1.168.387,3.174,3.432,4.946,4.189,7.975,2.932,2.7,6.9,2.811,10.666,2.691-1.426,1.079-2.964,2.006-4.3,3.2.282,2.127,2.207,3.826,1.925,6.138-.628.064-1.885.185-2.513.242a38.488,38.488,0,0,1-3.013,3.158c.185.765.548,2.288.733,3.053-.773-.1-2.312-.274-3.077-.371,1.055,2.312,1.635,4.841-.153,6.976,2.9,3.327,9.087,5.993,7.411,11.31,5.405.089,7.87,6.267,13.2,6.348,2.119,2.707,4.463,5.526,5.357,8.893-.532,2.9-1.8,5.671-1.627,8.684,1.208-.032,2.433-.056,3.657-.081.322,2.256-.427,4.986,1.353,6.775a22.647,22.647,0,0,1,4.56,6.992c-1.184-.193-2.352-.395-3.512-.612a14.125,14.125,0,0,1,.934,3.23c-1.82,1.732-4.688.959-6.67,2.489,1.168.628,2.562.959,3.552,1.893,2.546,5.228,3.988,11.1,7.774,15.66,1.063,1.136.8,2.739.822,4.165,1.265.475,2.884.475,3.9,1.45.7,1.74,1.2,3.649,2.94,4.688-.113-.806-.33-2.425-.443-3.23.983.395,1.966.789,2.956,1.208-.612.137-1.829.427-2.433.564,1.063,3.295,4.125,5.035,6.8,6.871-.217.282-.653.854-.878,1.136,1.112,1.861,2.433,5.14-.419,6.163,1.442,1.853,2.143,4.157,3.6,6.009,2.288,2.642,2.827,6.211,4.439,9.232-.25-2.546-.934-5.067-.83-7.629,1.555-2.739,2.135-6.13,4.39-8.4,2.32-.1,4.076,1.99,5.333,3.714-.209,2.248-1.466,4.56-.121,6.7,1.418,2.666-.83,5.276-2,7.564.234.161.7.491.934.653-.556,1.071-1.071,2.143-1.579,3.23,1.531,0,3.085,0,4.632.016.073,1.192.161,2.384.258,3.585a20.571,20.571,0,0,0,4.56-.1c1.482-.475,2.473-1.845,3.931-2.376a58.956,58.956,0,0,0,10.658.918c1.015-.6,2.038-1.192,3.093-1.756.443.548,1.345,1.635,1.8,2.175.064-.709.2-2.127.266-2.836,1.224,1.023,2.69,1.329,3.657-.169,1.78-2.264,2.82-5.075,5.035-7,3.166-2.763,5.059-6.743,8.644-9.071,2.086-1.249,3.142-3.448,4.181-5.55a2.444,2.444,0,0,1,2.232-1.643l.4-1.837c2.7,2.779.927,6.549.008,9.715a17.636,17.636,0,0,1,.725,7.959c1.909,4.382,4.117,9.119,8.386,11.673,4.962,2.683,10.778,2.9,16.015,4.825,3.665,2.65,5.027,7.347,8.08,10.577,1.571,1.539,5.228,1.74,4.817,4.592-.62,3.077-2.707,5.583-4.165,8.3-1.788,3.254-4.882,5.446-7.089,8.37-1.692,2.167-2.03,5.075-3.8,7.178-1.893.556-2.6-1.5-3.665-2.562-2.433,2.151-2.908,5.454-3.665,8.442-1.007,3.536.6,7.1.467,10.682-3.254.733-6.871.524-9.739,2.441-3.271,2.1-2.626,6.807-5.429,9.264-3.246,2.247-8.177.2-10.867,3.52-1.99,1.9-.234,5.365-2.489,7.129-1.378,1.144-3.166,2.562-5.035,1.8-3.037-1.16-6.291-.379-9.055,1.079-3.19,1.708-6.815,2.207-10.078,3.714-2.65,1.192-6.1,1.893-7.306,4.874-.379,2.014.145,4.068-.129,6.1-.862,1.241-2.513,1.426-3.778,2.046-2.441.846-4.221,2.981-6.783,3.569a50.461,50.461,0,0,0-8.587,2.658c-3.117,1.506-6.654,1.611-9.844,2.86-4.406,1.764-6.4,6.968-11.06,8.257-1.861.685-3.834.314-5.72.04-4.261,2.868-8.458,6.308-13.694,7.129-3.875.314-8.5-.644-11.592,2.3-2.119,1.917-4.906,3.109-6.38,5.663a18.471,18.471,0,0,0-7.806,1.136c-3.029,1.329-6.155-.765-9.28-.113.266-2.618-1.249-4.825-2.07-7.186-.532-2.336.58-4.938-.822-7.081-2.328-4.052-1.474-8.95-2.973-13.251-.516-1.756-2.368-2.473-3.673-3.5.814-.322,1.627-.644,2.457-.951-.419-1.861-1.249-3.8-.515-5.7a20.434,20.434,0,0,0,.306-9.441c-.741-2.529-2.57-4.551-4.286-6.461-.757-5.268-6.195-7.58-8.41-12.059-1.112-2.272-2.505-4.39-3.689-6.614-1.611-4.213-2.642-8.732-5.341-12.438-1.659-1.651-3.48-3.126-5.156-4.761-1.684-1.756-4.463-1.692-6.13-3.456a31.147,31.147,0,0,1-4.535-6.718c-1.611-2.731-1.088-6.05-2.07-8.982-1.466-3.81,1.676-8.056-.717-11.632-2.586-4.318-2.908-9.836-6.751-13.4-2.264-2.892-5.534-4.519-8.966-5.566-1.474-2.167-2.264-4.769-4.012-6.783,1.1-.918,1.74-2.32.894-3.649-1.305-3.4-4.721-5.421-5.921-8.861-.91-2.393-2.94-4.092-4.052-6.364-2.8-5.381-6.67-10.11-9.345-15.555-.967-1.7-1.845-4.02-4.076-4.269a5.316,5.316,0,0,0-4.431.878c-.66-.387-1.184-1.233-2.038-1.063a18.481,18.481,0,0,0-1.821,5.172c-4.713-2.562-7.854-6.912-11.576-10.617-.419-2.1-.1-4.511-1.772-6.154a28.179,28.179,0,0,1-5.381-10.513c-.483,1.5-1.925,3.069-.846,4.632,1.748,3.464,2.336,7.443,4.624,10.641a43.8,43.8,0,0,0,6.565,7.967c1.788,1.659.314,4.423,1.659,6.3,1.474,2.441,2.755,4.994,4.036,7.548-.153.532-.451,1.611-.6,2.143,5.035,7.854,8.41,16.619,12.937,24.755,1.885,3.456,5.083,5.808,7.782,8.563-1.378-.1-2.739-.217-4.108-.346.226,4.769.467,10.98,5.2,13.582,3.424,1.788,5.728,4.962,8.5,7.548,1.257,1.015,1.039,2.755,1.353,4.173.121,3.794,4.157,5.865,4.423,9.667-.524-.427-1.563-1.281-2.086-1.708,1.853,5.5.572,11.3,1.385,16.957.443,4.028-.137,9.61,4.221,11.7,2.505,1.386,4,4.012,6.533,5.373,1.345.959,3.2,1.523,3.818,3.214a78.823,78.823,0,0,1,6.888,21.7c.773,4.882,4.165,8.716,5.494,13.4.073-1.651.145-3.295.258-4.93,3.544.363,2.683,4.39,4.608,6.348,1.232.016,2.481-.137,3.73-.064.918.733,1.7,1.627,2.594,2.409,1.506,1.257,3.77,1.337,5.035,2.932,1.595,1.909,2.691,4.189,4.334,6.058,1.8,2,4.229,3.254,6.219,5.035a17.975,17.975,0,0,1,1.571,3.81,17.674,17.674,0,0,1,4.906,5.228c.644-.169,1.289-.33,1.95-.5,1.144,3.383,4.7,6.163,4.124,9.941-2.03,3.182-6.428,3.5-8.918,6.283,2.054-.1,4.447-1.442,6.316.04,3.738,2.239,5.405,6.428,7.919,9.771,2.272,3.109,6.525,4.133,10.142,3.174,3.343-.765,5.784-3.383,8.893-4.656,2.973-.443,5.9.83,8.885.709,3.714-.475,5.945-4.39,9.61-4.9,2.973.516,6.018.652,8.8-.725,2.594-1.313,5.43-.451,8.169-.346,2.505-.443,4.672-1.933,7.161-2.457,2.038-.516,4.213-.58,6.147-1.466,1.466-1.208,2.36-2.948,3.778-4.2,2.352-.846,5.768-.1,6.968,2.28-.274,2.7-1.523,5.268-1.184,8.039.258,2.852.483,5.8-.733,8.491.3-.524.894-1.555,1.192-2.078,1.047.556,2.095,1.112,3.15,1.692-1.829,1.007-4.2.733-5.889,1.853-.483,3.432-.008,7-1.112,10.343-.838,2.642-2.731,4.737-4.108,7.1-1.369,2.32-1.651,5.123-3.093,7.411-1.031,1.587-3.158,2.513-3.311,4.576-.3,3.826-2.852,6.775-4.825,9.868-2.666,4.028-2.94,9.038-5.043,13.316-2.481,5.148-6.34,9.457-8.942,14.532-2.868,5.494-7.282,9.9-11.125,14.693a89.782,89.782,0,0,1-21.662,19.519c-6.106,3.649-10.956,8.9-15.894,13.92-4.624,5.3-9.3,10.577-13.388,16.313a24.864,24.864,0,0,1-3.488,3.762,32.355,32.355,0,0,1-4.817,9.079c-.1-3.649-2.691-6.251-4.777-8.934-2-2.393-1.5-5.671-1.547-8.547.016-9.949-.048-19.9-.1-29.846a53.954,53.954,0,0,1,.073-6.847c.234-2.03,1.917-3.383,3.166-4.841,3.263-3.359,4.213-8.354,7.742-11.5,2.948-2.554,7.572-1.394,10.359-4.237,2.4-2.256,4.962-4.519,8.2-5.462,3.875-1.426,7.951.121,11.914-.314,1.982-.274,3.109-2.135,4.334-3.5,9.022-11.391,18.753-22.193,28.815-32.666-4.6.242-9.361.387-13.7-1.418-7.927-3.174-15.926-6.171-23.917-9.167-3.955-1.321-6.96-4.3-10.287-6.67-1.329-1.5-1.957-3.472-3.029-5.139-1.45-2.586-3.883-4.535-4.954-7.339-.959-2.393.636-4.68,1.531-6.807-3.738-1.418-7.6,2.578-11.052.443a15.346,15.346,0,0,1-.234-8.4c1.66-3.448,4.205-6.38,6.195-9.643a62.757,62.757,0,0,1-6.3-7.323c-2.151-2.9-5.051-5.14-7.145-8.088-2.223-3.416-6.082-5.131-9.425-7.218-3.585-.612-7.725-2.666-11.02-.161-.346-.91-.685-1.8-1.023-2.7-2.151,1.184-4.511,3.214-7.113,2.143-1.909-1.41-3.569-3.142-5.47-4.568-1.176,3.142-2.441,6.243-3.762,9.32a39.726,39.726,0,0,0-3.609-4.954c-.685.677-1.369,1.353-2.038,2.046-1.684,0-3.448-.443-5.035.266-.757,2.892-.661,5.985-1.9,8.748-.741,1.8-1.853,3.528-1.877,5.542-.234,1.474.056,3.118-.717,4.463-1.587.419-3.295.371-4.809,1.023-1.82,2.159-2.183,5.164-3.979,7.339-3.762,3.472-3.448,9.095-3.81,13.8-.83.959-1.668,1.909-2.5,2.868-.451-1.063-.58-2.892-2.175-2.7-2.707,2.078-1.8,5.76-2.658,8.66-.959,3.134-2.239,6.291-1.885,9.651-.04,3.158,1.168,6.718-.652,9.586-2.167,2.6-5.921,1.112-8.813,1.257a12.136,12.136,0,0,1-2.352,6.348c3.23,1.5,7.4,1.394,9.763,4.406,1.474,2.062,2.707,4.334,4.664,6.01,1.788,1.982,4.423,3.5,5.035,6.283,1.321,4.253,2.272,8.8,5.285,12.245a50.321,50.321,0,0,1,5.244.83c.314,3.279-.822,6.984,1.941,9.522-5.3-.121-10.658-.8-15.934.04-2.159.322-3.706,2.014-4.978,3.649-1.756,2.3-3.5,4.616-5.437,6.783a15.616,15.616,0,0,1-5.752-1.249c-3.118.677-7.854.467-8.813,4.342a50.072,50.072,0,0,1-3.859-3.408c-1.45.395-3.013,1.506-4.455.516-1-.29-2.062-1.265-3.077-.491-1.563.942-2.3,2.731-3.287,4.189-.089-.6-.258-1.8-.346-2.4-.725.032-2.183.1-2.908.137,1.136-3.48-2.892-4.447-4.906-6.2-2.457-1.692-2.989-4.978-5.293-6.767-1.232.975-2.119,2.3-3.246,3.391-1.772.926-3.391-.862-4.938-1.482-1.523.983-2.9,2.272-4.664,2.811-2.626-.387-4.374-2.658-6.155-4.39-1.6-2.127-3.545-3.963-5.115-6.106-1.353-1.853-.967-4.261-1.611-6.348-1.853-1.756-4.374-2.562-6.348-4.141a50.884,50.884,0,0,1-3.158-4.769c.129-.959.266-1.9.4-2.852-1.853-1.112-2.924-3-4.326-4.559-2.425-1.692-5.325-2.723-7.379-4.906-1.7-1.184.967-3.528-.806-4.648-1.265-1.176-2.441-2.433-3.754-3.536-2.07-.934-4.479-.725-6.541-1.684-1.547-1.136-.3-3.118-.3-4.632a49.732,49.732,0,0,0-7.717-.862c.274-.636.83-1.909,1.1-2.546-.435-.056-1.289-.177-1.724-.234.991-2.7,3.206-5.075,2.739-8.144.145-5.607-4.229-9.522-7.58-13.413-1.957-1.877-.475-4.471-.314-6.71-1.345-1.442-3.432-2.248-4.3-4.084a37.24,37.24,0,0,1,.636-4.535l-1.369.508a18.223,18.223,0,0,0-.83-5.591c.209-.814.427-1.619.644-2.417-2.288-.129-5.881,1.458-6.823-1.6.475-2.86,2.755-4.737,4.85-6.469a20.874,20.874,0,0,1-1.434-4.874c.121-2.409,2.489-3.633,4.092-5.059-.443-1.587-1.708-3.351-.967-4.978,2.135-2.328,4.447-4.656,5.542-7.693.419-1.837-.709-4.463,1.337-5.575a24,24,0,0,1,9.884-1.007c.113-14.83.435-29.669.072-44.5q-40.794-24.143-83-45.837c-3.528-1.788-7.242.588-10.271,2.32-3.649,1.966-6.92,4.817-10.972,5.9-2.32-.459-3.552-2.836-5.365-4.149-5.276-4.326-12.486-4.237-18.705-6.251-15.128,9.159-29.878,18.947-44.314,29.153-7.371,5.091-13.678,11.511-19.946,17.867-2.9,2.932-7.331,2.723-11.076,3.593-5.333.789-10.432,2.715-15.781,3.319-1.506.072-3.843.274-4.447-1.49a36.245,36.245,0,0,0,1.176-8.1c-3.536-1.724-7.677-2.312-10.6-5.148-1.015.193-2.038.346-3.061.467-2.006-.951-2.707-3.319-4.326-4.721-1.345-.814-2.86-1.289-4.2-2.1a15.25,15.25,0,0,1,.04-3.971c-3.126-2.691-6.976-4.334-10.2-6.888-17.167-12.945-34.373-25.859-51.886-38.337a5.622,5.622,0,0,0-3.472-1.4c-5.647-.1-11.294.024-16.941-.024,4.229,32.174,6.871,64.534,9.892,96.837.242,2.964,2.256,5.3,3.222,8.007-.258,2.892-.644,5.961-2.046,8.555-1.192.588-2.57.387-3.851.451-7.54-.1-15.08-.113-22.62-.008-5.035.1-10.327,1.458-15.12-.725-3,3.343-7.572,2.07-11.415,1.539-2.691-.516-3.923,2.256-4.858,4.213a39.049,39.049,0,0,0-5.728-5.977c-1.337-.056-3.19.354-3.279,2-.661,2.546.459,6.227-2.288,7.749-2.489,1.1-4.592-1.176-6.251-2.707a27.758,27.758,0,0,1-9.49-12.237c-.693-1.659-2.932-1.273-4.294-2.111-2.207-1.466-3.577-4.02-6.066-5.1a18.455,18.455,0,0,0-10.311.846c-3,1.418-6.235.024-9.353.338-1.933,1.563-1.9,4.447-3.673,6.179-.789-7.967,5.123-14.54,5.115-22.378a64.488,64.488,0,0,0-1.458-12.1c-.3-2.658-2.562-4.374-4-6.436l1.386-1.547c-1.055-2.658,1.144-4.479,2.264-6.6.073-2.465-1.482-4.568-2.409-6.743-.266.387-.8,1.152-1.071,1.539a57.034,57.034,0,0,1-3.738-6.944c-.459,1.531-.951,3.061-1.466,4.576-1.917-3.343-.483-7.073.242-10.521.524-2.175.789-4.455,1.788-6.477,1.208-2.352,4.382-3.222,4.914-5.993,1.224-5.131,4.535-9.3,6.549-14.089-.62.459-1.869,1.378-2.489,1.829,2.07-6.557,10.368-8.636,11.9-15.467.934-4.7,2.006-9.417,4.173-13.719,2.127-4.8,8.458-5.51,10.617-10.311,1.837-4.165,2.666-9.071,6.235-12.228,3.593-1.281,7.516-1.249,11.085-2.634,4.358-1.337,7.363-4.914,10.843-7.613A42.251,42.251,0,0,0,84.81,89.888c1.329-2.457-.669-4.31-2.32-5.848.185-2.868.516-5.728.741-8.6.338-3.029,2.489-5.341,4.124-7.766,1.821-2.473.7-6.09,2.892-8.378a73.874,73.874,0,0,1,7.331-7.049c4.986-3.456,11.455-4.165,16.143-8.144,4.592-4.02,6.783-9.941,8.732-15.547.781-2.086,1.16-4.4,2.457-6.243,1.885-.741,3.891-1.144,5.832-1.724,1.523,2.409,2.739,5.252,5.341,6.718,4.664,3.085,10.36.636,15.515,1.305,2.264.443,4.092-.926,5.607-2.409.1.58.282,1.732.379,2.312,2.175,1.756,5,1.329,7.6,1.587,2.836.3,5.381-1.241,7.83-2.433,2.312-1.071,3.077-4.084,5.566-4.874,3.271-.644,6.316-2.167,9.707-1.49,1.651-1.861,3.053-4.092,5.413-5.148,6.9-3.464,14.855-3.512,22.362-4.406,1.877-.483,3.569-1.627,5.558-1.668,6.219-.354,12.4-2.094,18.657-1.12,1.958.5,3.544,1.877,5.454,2.513a23.166,23.166,0,0,1,7.427-2.272c1.651.056,2.28-1.6,3.263-2.594,2.513.1,4.632,1.853,7.137,2,1.651.145,2.7-1.249,3.826-2.191,2.07.54,4.479.741,5.889,2.554,4.036-.62,8.611-.016,12.019-2.715,3.077-1.885,7.041-3.689,10.561-1.909,3.029.588,3.279,4.084,4.02,6.469,2.239-1.136,4.141-2.8,6.291-4.076,2.683.644,1.909,3.979.145,5.2-1.788,2.119-5.752,3.738-4.737,7.081.7,3.351,5.47,3.528,5.937,6.984,1.466,5.019-2.191,9.78-6.3,12.22-1.6,1.249-4.133,2.086-4.423,4.366a5.392,5.392,0,0,0,6.227,4.7c-.266-2.932,2.771-2.981,4.7-1.909-.435.733-.87,1.458-1.3,2.183,1.74,1.055,2.175,3.2,3.206,4.833,4.576,1.023,8.386,4.068,12.945,5.156,3.722.838,7.314-1.764,11.012-.628a27.485,27.485,0,0,1,10.239,3.681c2.634,1.99,6.751.363,8.885,3.142,1.756,2.8,1.289,6.6,3.641,9.111,2.127,2.6,5.591,3.4,8.789,3.609,6.227.467,12.535,1.885,17.956,5.1,3.23,1.925,5.445,5.647,9.344,6.34,3.843.185,7.524-1.933,9.957-4.8,1.241-1.635,2.65-3.794,1.724-5.9-1.071-3.029-2.723-6.235-1.659-9.522,1.12-3.109,3.843-5.276,6.525-7.033,3.2-2.167,7.145-2.441,10.706-3.722,5.47-1.756,11.173.314,16.087,2.731,2.248.7.346,4.455,2.884,4.882a59.068,59.068,0,0,1,7.8,1.966c3.053,1.257,6.4.524,9.57,1.039,2.272.91,2.868,3.5,3.44,5.615,6.565-1.523,13.211-.217,19.688,1.1,2.94.564,4.986,3.375,8.217,2.924,2.723,1.426,5.913,1.281,8.708,2.489,2.086.765,4.278,1.941,6.565,1.313,3.254-.91,5.7-3.383,8.305-5.405,1.74.741,2.884-.725,3.971-1.829,3.5-.137,7.057-2.618,10.416-.548,2.014,1.257,4.205-.306,6.332.008,2.449,2.135,5.075,4.423,8.313,5.139,5.575-.628,12.269.685,16.587-3.786,5.1-4.7,4.97-12.116,7.935-17.956.048-.459.161-1.369.209-1.829a59.373,59.373,0,0,0,6.452-14.806,23.09,23.09,0,0,1,3.134-3.142c-1.208-2.884-.854-5.929-.588-8.934a14.194,14.194,0,0,1-1.426-7.242q2.332.193,4.664.564a6.236,6.236,0,0,0,1.9-4.632c.862.048,1.732.1,2.61.153a8.628,8.628,0,0,1,.29-7.572c1.925.733,3.714,1.885,5.744,2.36,3.875.016,7.29-2.159,11.068-2.715,3.319-.653,5.719,2.634,8.99,2.481,5.808.185,11.117-2.521,16.417-4.5,3.528-1.337,7.315-.29,10.972-.54,2.61-.185,4.93-1.514,7.355-2.384.7.789,1.41,1.579,2.119,2.376a27.519,27.519,0,0,1,2.811-3m-87.17,104.328c-.419,1.643-1.313,3.246-1.023,4.994l1.539,1.184-.636-.483c2.908-4.624,2.441-10.255,3.48-15.418C560.735,100.432,561.146,104.315,560.051,107.578Z" transform="translate(0 0)" fill="#001425"/>
    <path id="Path_12895" data-name="Path 12895" d="M160.442,21.452c1.208-1.2,3.462.745,2.194,2.043C161.418,24.753,159.245,22.751,160.442,21.452Z" transform="translate(0.996 0.116)" fill="#001425"/>
    <path id="Path_12896" data-name="Path 12896" d="M904.6,169.464c1.137-.936,2.848-.805,2.818,1,.473,2.295-.211,4.609-.6,6.864C905.476,174.918,904.238,172.3,904.6,169.464Z" transform="translate(-200.306 -32.734)" fill="#001425"/>
    <path id="Path_12897" data-name="Path 12897" d="M1017.373,250.83c.473,1.057.946,2.113,1.429,3.18-1.5,2.063-2.929,4.177-4.418,6.25C1012.522,256.768,1015.873,253.728,1017.373,250.83Z" transform="translate(-199.605 -48.993)" fill="#001425"/>
    <path id="Path_12898" data-name="Path 12898" d="M788.33,308.931a11.706,11.706,0,0,0,2.949-3.371c.392.936.805,1.872,1.228,2.818a8.113,8.113,0,0,1,3.2,5.072A74.53,74.53,0,0,1,788.33,308.931Z" transform="translate(-153.504 -59.65)" fill="#001425"/>
    <path id="Path_12899" data-name="Path 12899" d="M765.893,322.67c1.731-.3,1.781,1.9,2.536,2.969a15.629,15.629,0,0,1,4.448,2.446c-3.382.372-7.417.332-9.048-3.231l1.459-.08C765.44,324.24,765.742,323.193,765.893,322.67Z" transform="translate(-148.955 -62.761)" fill="#001425"/>
    <path id="Path_12900" data-name="Path 12900" d="M802.276,349.9c1.761-.6,2.234,2.415.674,2.888C801.149,353.342,800.656,350.384,802.276,349.9Z" transform="translate(-155.296 -67.79)" fill="#001425"/>
    <path id="Path_12901" data-name="Path 12901" d="M943.741,372.113c.966-3.623,4.982-1.2,7.558-1.872,3.089-.835,5.938.684,8.5,2.254-2.838,3.412-7.518,4.217-11.715,3.975C946.156,375.918,942.745,374.74,943.741,372.113Z" transform="translate(-200.055 -72.179)" fill="#001425"/>
    <path id="Path_12902" data-name="Path 12902" d="M927.27,377.867c.252-1.9,3.422-1.3,3.5.433C930.49,380.122,927.341,379.528,927.27,377.867Z" transform="translate(-200.16 -73.003)" fill="#001425"/>
  </g>
</svg>
