<svg xmlns="http://www.w3.org/2000/svg" width="20.003" height="28.334" viewBox="0 0 20.003 28.334">
  <path id="mobile" d="M15094.665,22269.334h-13.329A3.377,3.377,0,0,1,15078,22266v-21.662a3.377,3.377,0,0,1,3.337-3.336h13.329a3.377,3.377,0,0,1,3.337,3.336V22266a3.377,3.377,0,0,1-3.337,3.336Zm-6.164-4.336a1.5,1.5,0,1,0,1.5,1.5A1.5,1.5,0,0,0,15088.5,22265Zm-7.165-19.332a.851.851,0,0,0-.839.832v16.336a.851.851,0,0,0,.839.834h13.329a.84.84,0,0,0,.833-.834V22246.5a.84.84,0,0,0-.833-.832Zm4.582-2.33a.416.416,0,1,0,0,.832h4.164a.416.416,0,1,0,0-.832Z" transform="translate(-15077.999 -22241)" fill="#999"/>
</svg>
