<svg xmlns="http://www.w3.org/2000/svg" width="29.558" height="30" viewBox="0 0 29.558 30">
  <g id="offers" transform="translate(-3.2 -2.5)">
    <g id="Group_10871" data-name="Group 10871" transform="translate(3.2 2.5)">
      <path id="Path_12969" data-name="Path 12969" d="M30.863,9.1H28.274a4.683,4.683,0,0,0-4.295-6.6c-3.158,0-4.737,1.8-6,3.916C16.716,4.3,15.137,2.5,11.979,2.5A4.683,4.683,0,0,0,7.684,9.1H5.095A1.9,1.9,0,0,0,3.2,10.995v3.853a.916.916,0,0,0,.916.916H31.842a.916.916,0,0,0,.916-.916V10.995A1.9,1.9,0,0,0,30.863,9.1ZM23.979,5.311a1.895,1.895,0,1,1,0,3.789H19.684C21.074,6.542,21.895,5.311,23.979,5.311ZM10.084,7.205a1.9,1.9,0,0,1,1.895-1.895c2.084,0,2.905,1.232,4.295,3.789H11.979A1.9,1.9,0,0,1,10.084,7.205Z" transform="translate(-3.2 -2.5)" fill="#fff"/>
      <path id="Path_12970" data-name="Path 12970" d="M9.2,64.989a2.332,2.332,0,0,0,2.337,2.337h9.158V53.4H9.2Z" transform="translate(-7.305 -37.326)" fill="#fff"/>
      <path id="Path_12971" data-name="Path 12971" d="M54.4,67.326h9.158a2.332,2.332,0,0,0,2.337-2.337V53.4H54.4Z" transform="translate(-38.232 -37.326)" fill="#fff"/>
    </g>
  </g>
</svg>
