<?xml version="1.0" encoding="utf-8"?>
<!-- Generator: Adobe Illustrator 25.2.1, SVG Export Plug-In . SVG Version: 6.00 Build 0)  -->
<svg version="1.1" id="Layer_1" xmlns="http://www.w3.org/2000/svg" xmlns:xlink="http://www.w3.org/1999/xlink" x="0px" y="0px"
	 viewBox="0 0 500 500" style="enable-background:new 0 0 500 500;" xml:space="preserve">
<style type="text/css">
	.st0{fill:#FFFFFF;}
</style>
<g>
	<path class="st0" d="M212.9,90.83c52.17,0,104.35,0,156.52,0c5.83,1.89,7.9,4.58,7.91,10.85c0.05,36.93,0.05,73.86,0,110.8
		c-0.01,7.68-4.29,11.88-12.01,11.9c-19.57,0.06-39.13,0.01-58.7,0.02c-4.89,0-4.99,0.1-5.01,4.88c-0.01,2.74-0.04,5.47,0.01,8.21
		c0.07,3.48,0.38,3.83,3.79,3.85c6.63,0.05,13.25,0.02,19.88,0.02c19.57,0,39.13,0,58.7,0c2.11,0,4.19,0.03,6.2,0.87
		c3.92,1.63,6.02,4.49,6.03,8.75c0.03,15.36-0.02,30.72,0.05,46.09c0.01,2.04-0.82,2.88-2.71,3.01c-1.16,0.08-2.31,0.08-3.47,0.08
		c-40.5,0-81,0-121.5,0c-6.62,0-6.82-0.21-6.82-6.98c-0.01-8.84,0.01-17.68-0.01-26.52c-0.01-4.11-0.25-4.34-4.22-4.38
		c-2.95-0.03-5.89-0.04-8.84,0.01c-3.5,0.06-3.8,0.37-3.89,3.77c-0.03,1.26,0.01,2.53-0.02,3.79c-0.2,6.95-4.36,11.23-11.3,11.33
		c-9.68,0.14-19.35,0.03-29.03,0.04c-4.42,0.01-8.84,0.04-13.25-0.01c-2.25-0.02-3.26,0.87-3.21,3.17c0.07,3.37-0.02,6.73,0.03,10.1
		c0.05,3.28,0.39,3.65,3.63,3.68c7.36,0.06,14.73,0.01,22.09,0.02c18.59,0.04,31.03,12.53,31.07,31.19
		c0.01,5.26,0.06,10.52-0.02,15.78c-0.11,7.52-4.3,11.79-11.79,11.8c-36.92,0.05-73.84,0.05-110.77,0
		c-7.68-0.01-11.83-4.28-11.92-12c-0.07-5.68-0.07-11.36,0-17.05c0.2-16.81,12.91-29.54,29.68-29.71
		c7.68-0.08,15.36,0.01,23.04-0.03c3.75-0.02,4.02-0.32,4.07-4.23c0.03-2.74,0.03-5.47,0-8.21c-0.03-4.27-0.24-4.5-4.42-4.51
		c-12.83-0.02-25.67-0.01-38.5-0.01c-1.26,0-2.53,0.04-3.79-0.07c-5.55-0.48-9.52-4.44-10.01-10c-0.18-2.1-0.05-4.21-0.12-6.31
		c-0.05-1.68-0.85-2.5-2.53-2.52c-4.1-0.05-8.2-0.06-12.31,0c-1.83,0.03-2.66,0.95-2.68,2.74c-0.02,1.16-0.03,2.31-0.03,3.47
		c0,44.3,0,88.59,0,132.89c0,2.75-0.04,5.45-1.39,7.98c-2.84,5.33-11.65,6.83-16.16,2.78c-1.56-1.4-1.6-3.37-2.38-5.06
		c0-52.61,0-105.22,0-157.83c1.87-5.8,4.6-7.79,10.89-7.83c7.47-0.04,14.93,0,22.4-0.02c4.15-0.01,4.3-0.15,4.31-4.21
		c0.01-14.41-0.3-28.83,0.08-43.23c0.6-22.86,10.24-41.29,29.13-54.2c20.73-14.16,43.19-16.21,65.93-5.73
		c22.2,10.24,35.16,28.07,38.61,52.48c1.23,8.69,0.43,17.43,0.56,26.15c0.13,8.31,0.01,16.62,0.04,24.93
		c0.01,3.5,0.29,3.78,3.78,3.8c9.57,0.03,19.14,0.03,28.71,0c3.31-0.01,3.54-0.28,3.57-3.64c0.03-3.16,0.02-6.31,0-9.47
		c-0.03-3.75-0.24-3.98-3.89-4.01c-3.57-0.03-7.15,0.05-10.72-0.03c-3.57-0.08-4.25-0.71-4.29-4.29
		c-0.09-7.89-0.05-15.78-0.03-23.66c0.05-19.82-5.61-37.76-17.99-53.34c-9.06-11.41-20.36-19.99-33.87-25.58
		c-4.79-1.98-4.94-2.2-4.95-7.48c-0.01-2.73-0.02-5.47,0.01-8.2C205.13,95.43,207.1,92.7,212.9,90.83z"/>
	<path class="st0" d="M329.5,318.1c21.13,0,42.27,0.04,63.4-0.06c2.41-0.01,3.1,0.52,3.09,3.03c-0.1,27.56-0.05,55.11-0.07,82.67
		c-0.01,7.45-6.4,12.18-12.89,9.64c-3.69-1.45-5.99-4.84-6.01-9.13c-0.04-8.52-0.09-17.04,0.04-25.56c0.03-2.09-0.57-2.56-2.6-2.56
		c-30.07,0.07-60.14,0.07-90.22,0c-2.02,0-2.63,0.46-2.6,2.56c0.13,8.31,0.07,16.62,0.05,24.93c-0.02,6.13-3.89,10.39-9.4,10.43
		c-5.52,0.04-9.52-4.23-9.52-10.3c-0.02-27.66,0.02-55.32-0.06-82.98c-0.01-2.25,0.59-2.73,2.77-2.72
		C286.81,318.14,308.16,318.1,329.5,318.1z"/>
	<path class="st0" d="M177.45,414.06c-6.09,0-12.19,0.04-18.28-0.01c-5.81-0.05-10.02-4.08-10.01-9.49
		c0.01-5.39,4.24-9.36,10.06-9.44c0.11,0,0.21,0.01,0.32,0c2.79-0.19,6.51,1.2,8.11-0.58c1.37-1.53,0.33-5.19,0.45-7.9
		c0.15-3.43-1.47-8.01,0.63-9.94c1.84-1.69,6.37-0.55,9.71-0.49c2.8,0.05,6.63-1.24,8.1,0.53c1.41,1.7,0.43,5.39,0.47,8.21
		c0.05,3.25-1.16,7.47,0.43,9.49c1.66,2.11,6.07,0.49,9.28,0.68c5.16,0.3,9.15,4.31,9.23,9.33c0.07,5.15-3.97,9.46-9.27,9.57
		C190.27,414.15,183.86,414.05,177.45,414.06z"/>
</g>
</svg>
