<svg xmlns="http://www.w3.org/2000/svg" width="23.403" height="30" viewBox="0 0 23.403 30">
  <path id="child" d="M35.722,8.437a4.219,4.219,0,0,0,0-8.438,4.263,4.263,0,0,0-4.272,4.219A4.267,4.267,0,0,0,35.722,8.437Zm11.2-1.945a2.345,2.345,0,0,0-3.3-.346l-3,2.432a8,8,0,0,1-9.8,0l-3-2.432a2.344,2.344,0,1,0-2.95,3.645l3,2.43a12.415,12.415,0,0,0,2.225,1.4l-.053,14.5A1.879,1.879,0,0,0,31.92,30H32.8a1.879,1.879,0,0,0,1.875-1.875V21.562h1.875v6.563A1.879,1.879,0,0,0,38.43,30h.885a1.879,1.879,0,0,0,1.875-1.875v-14.5a12.393,12.393,0,0,0,2.225-1.4l3-2.43A2.286,2.286,0,0,0,46.92,6.492Z" transform="translate(-24.004 0)" fill="#fff"/>
</svg>
