<?xml version="1.0" encoding="utf-8"?>
<!-- Generator: Adobe Illustrator 25.2.1, SVG Export Plug-In . SVG Version: 6.00 Build 0)  -->
<svg version="1.1" id="Layer_1" xmlns="http://www.w3.org/2000/svg" xmlns:xlink="http://www.w3.org/1999/xlink" x="0px" y="0px"
	 viewBox="0 0 500 500" style="enable-background:new 0 0 500 500;" xml:space="preserve">
<style type="text/css">
	.st0{fill:#FFFFFF;}
</style>
<g>
	<path class="st0" d="M176.73,297.47c0-28.3,0-56.6,0-84.91c0-1,0.06-2-0.02-2.99c-0.14-1.91,0.41-4.39-2.4-4.73
		c-3.07-0.37-3.75,2.11-3.96,4.38c-0.98,10.79-1.81,21.6-2.7,32.4c-0.7,8.57-1.29,17.15-2.13,25.71
		c-0.64,6.48-5.82,10.86-11.86,10.37c-5.91-0.49-10.36-5.47-9.9-11.9c1.19-16.28,2.65-32.54,4.06-48.8
		c0.5-5.83,0.78-11.72,1.82-17.46c3.03-16.7,17.68-29.3,34.64-29.62c15.58-0.29,31.17-0.27,46.75-0.01
		c16.28,0.28,29.49,11.34,33.74,28.78c4.18,17.15,7.59,34.49,11.21,51.78c1.05,5.01-3.22,10.81-8.47,12.04
		c-5.46,1.28-11.67-2.19-13.05-7.91c-2.01-8.34-3.53-16.8-5.24-25.21c-1.29-6.34-2.53-12.69-3.79-19.04
		c-0.05-0.24-0.06-0.5-0.14-0.73c-0.85-2.26-1.07-5.55-4.34-5.17c-3.29,0.39-2.44,3.62-2.44,5.81c-0.05,57.6-0.04,115.2-0.04,172.8
		c0,2.62-0.02,5.22-1.11,7.7c-2.57,5.81-8.31,8.99-14.55,8c-5.91-0.94-10.54-6.22-10.88-12.52c-0.12-2.24-0.03-4.49-0.03-6.73
		c0-30.05-0.11-60.1,0.13-90.14c0.03-3.96-1.81-3.78-4.39-3.78c-2.53,0.01-4.5-0.36-4.47,3.7c0.23,31.67,0.13,63.34,0.12,95
		c0,7.19-3.33,12.39-9.12,14.37c-8.72,2.98-17.4-3.56-17.42-13.31c-0.06-24.06-0.02-48.13-0.02-72.19
		C176.73,307.94,176.73,302.71,176.73,297.47z"/>
	<path class="st0" d="M294.13,347.16c0-13.72-0.06-27.43,0.06-41.14c0.02-2.38-0.66-3.33-2.98-4.14
		c-11.62-4.04-20.03-11.79-25.26-22.93c-2.46-5.25-0.9-10.84,3.63-13.36c4.55-2.53,10.33-0.95,13.14,4.11
		c5.87,10.56,15.01,15.46,26.72,16.44c8.34,0.7,16.69,0.56,25.04,0.63c10.23,0.08,17.81,4.5,22.97,13.37
		c6.21,10.66,7.56,22.25,6.98,34.25c-0.2,4.13-3.88,7.47-7.92,7.49c-3.82,0.03-7.36-3.08-7.84-7.15c-0.57-4.82-0.88-9.67-1.41-14.5
		c-0.33-2.99-1.41-5.79-2.53-8.56c-0.21-0.53-0.57-1.18-1.35-1.06c-0.86,0.14-0.7,0.89-0.73,1.46c-0.05,0.87-0.02,1.74-0.02,2.62
		c0,24.31,0.01,48.63-0.01,72.94c-0.01,6.6-3.84,11.4-9.42,11.94c-6.4,0.61-11.43-4.05-11.46-10.84
		c-0.06-14.21-0.09-28.43,0.04-42.64c0.02-2.63-0.4-3.64-3.37-3.62c-2.94,0.02-3.09,1.23-3.08,3.56c0.08,14.34,0.14,28.68,0,43.01
		c-0.08,8.5-8.13,13.75-15.23,10.08c-4.33-2.24-5.98-6.09-5.97-10.82C294.14,374.59,294.13,360.88,294.13,347.16z"/>
	<path class="st0" d="M207.46,101.63c16.29,0.02,29.49,13.1,29.62,29.37c0.13,16.27-13.34,29.8-29.65,29.78
		c-16.41-0.01-29.63-13.38-29.51-29.83C178.03,114.58,191.1,101.61,207.46,101.63z"/>
	<path class="st0" d="M318.83,231.15c13.58-0.01,24.51,10.89,24.47,24.39c-0.05,13.54-10.96,24.33-24.57,24.29
		c-13.46-0.04-24.09-10.68-24.18-24.2C294.46,242.01,305.22,231.16,318.83,231.15z"/>
</g>
</svg>
