<svg xmlns="http://www.w3.org/2000/svg" width="78.261" height="20" viewBox="0 0 78.261 20">
  <g id="paypal" transform="translate(-0.5 -24)">
    <g id="Group_12069" data-name="Group 12069" transform="translate(54.413 29.217)">
      <path id="Path_15202" data-name="Path 15202" d="M50.484,28.2H46.26a.825.825,0,0,0-.621.5L43.9,39.629a.329.329,0,0,0,.373.373h2.236a.329.329,0,0,0,.373-.373l.5-3.106a.568.568,0,0,1,.621-.5h1.366q4.286,0,4.845-4.1a3.256,3.256,0,0,0-.5-2.733,5.01,5.01,0,0,0-3.23-.994m.5,4.1c-.248,1.491-1.366,1.491-2.484,1.491h-.745l.5-2.857c0-.124.124-.248.373-.248h.248c.745,0,1.491,0,1.863.5.248.124.248.5.248,1.118" transform="translate(-43.9 -28.2)" fill="#139ad6"/>
    </g>
    <g id="Group_12070" data-name="Group 12070" transform="translate(23.978 29.217)">
      <path id="Path_15203" data-name="Path 15203" d="M25.984,28.2H21.76a.825.825,0,0,0-.621.5L19.4,39.629a.329.329,0,0,0,.373.373H21.76a.825.825,0,0,0,.621-.5l.5-2.981a.568.568,0,0,1,.621-.5h1.366q4.286,0,4.845-4.1a3.256,3.256,0,0,0-.5-2.733,4.775,4.775,0,0,0-3.23-.994m.5,4.1C26.232,33.79,25.114,33.79,24,33.79h-.621l.5-2.857c0-.124.124-.248.373-.248h.248c.745,0,1.491,0,1.863.5a1.331,1.331,0,0,1,.124,1.118" transform="translate(-19.4 -28.2)" fill="#263b80"/>
    </g>
    <g id="Group_12071" data-name="Group 12071" transform="translate(33.714 32.944)">
      <path id="Path_15204" data-name="Path 15204" d="M36.88,31.448H34.893c-.124,0-.373.124-.373.248l-.124.621-.124-.248a2.922,2.922,0,0,0-2.36-.87,4.773,4.773,0,0,0-4.6,4.1,3.7,3.7,0,0,0,.745,3.106,3.13,3.13,0,0,0,2.609.994,3.971,3.971,0,0,0,2.857-1.118L33.4,38.9a.329.329,0,0,0,.373.373h1.863a.825.825,0,0,0,.621-.5l1.118-6.957c-.124-.124-.373-.373-.5-.373m-2.857,3.975a2.4,2.4,0,0,1-2.36,1.988,1.986,1.986,0,0,1-1.366-.5,2.649,2.649,0,0,1-.373-1.491,2.216,2.216,0,0,1,3.6-1.491,2.169,2.169,0,0,1,.5,1.491" transform="translate(-27.237 -31.2)" fill="#263b80"/>
    </g>
    <g id="Group_12072" data-name="Group 12072" transform="translate(64.025 32.944)">
      <path id="Path_15205" data-name="Path 15205" d="M61.28,31.448H59.293c-.124,0-.373.124-.373.248l-.124.621-.124-.248a2.922,2.922,0,0,0-2.36-.87,4.773,4.773,0,0,0-4.6,4.1,3.7,3.7,0,0,0,.745,3.106,3.13,3.13,0,0,0,2.609.994,3.971,3.971,0,0,0,2.857-1.118L57.8,38.9a.329.329,0,0,0,.373.373h1.863a.825.825,0,0,0,.621-.5l1.118-6.957c-.124-.124-.248-.373-.5-.373m-2.857,3.975a2.4,2.4,0,0,1-2.36,1.988,1.986,1.986,0,0,1-1.366-.5,2.649,2.649,0,0,1-.373-1.491,2.216,2.216,0,0,1,3.6-1.491,1.426,1.426,0,0,1,.5,1.491" transform="translate(-51.637 -31.2)" fill="#139ad6"/>
    </g>
    <g id="Group_12076" data-name="Group 12076" transform="translate(0.5 24)">
      <g id="Group_12073" data-name="Group 12073" transform="translate(44.099 9.193)">
        <path id="Path_15206" data-name="Path 15206" d="M45.565,31.4H43.453a.645.645,0,0,0-.5.248l-2.733,4.224L38.981,31.9a.574.574,0,0,0-.621-.373H36.373c-.248,0-.373.248-.373.5L38.236,38.6l-2.112,2.981c-.124.248,0,.621.248.621H38.36a.645.645,0,0,0,.5-.248l6.832-9.814c.373-.373.124-.745-.124-.745" transform="translate(-36 -31.4)" fill="#263b80"/>
      </g>
      <g id="Group_12074" data-name="Group 12074" transform="translate(73.789 5.293)">
        <path id="Path_15207" data-name="Path 15207" d="M61.639,28.558,59.9,39.738a.329.329,0,0,0,.373.373h1.739a.825.825,0,0,0,.621-.5l1.739-10.932A.329.329,0,0,0,64,28.31H62.012c-.124-.124-.248,0-.373.248" transform="translate(-59.9 -28.261)" fill="#139ad6"/>
      </g>
      <g id="Group_12075" data-name="Group 12075">
        <path id="Path_15208" data-name="Path 15208" d="M14.786,25.491C13.916,24.5,12.3,24,10.065,24H3.854a1.066,1.066,0,0,0-.87.745L.5,41.019a.568.568,0,0,0,.5.621H4.848l.994-6.087V35.8a1.066,1.066,0,0,1,.87-.745H8.575c3.6,0,6.335-1.491,7.2-5.59v-.373h0a4.338,4.338,0,0,0-.994-3.6" transform="translate(-0.5 -24)" fill="#263b80"/>
      </g>
    </g>
    <g id="Group_12077" data-name="Group 12077" transform="translate(4.475 29.093)">
      <path id="Path_15209" data-name="Path 15209" d="M14.88,28.1h0v.373c-.87,4.224-3.6,5.59-7.2,5.59H5.812a1.066,1.066,0,0,0-.87.745L3.7,42.386a.455.455,0,0,0,.5.5h3.23a.7.7,0,0,0,.745-.621v-.124l.621-3.851v-.248a.7.7,0,0,1,.745-.621h.5c3.106,0,5.59-1.242,6.211-4.969a4.567,4.567,0,0,0-.621-3.727,1.272,1.272,0,0,0-.745-.621" transform="translate(-3.7 -28.1)" fill="#139ad6"/>
    </g>
    <g id="Group_12078" data-name="Group 12078" transform="translate(5.842 28.348)">
      <path id="Path_15210" data-name="Path 15210" d="M13.744,27.873c-.124,0-.248-.124-.373-.124A.456.456,0,0,1,13,27.624a6.563,6.563,0,0,0-1.615-.124H6.539a.456.456,0,0,0-.373.124.683.683,0,0,0-.373.621L4.8,34.7v.248a1.066,1.066,0,0,1,.87-.745H7.533c3.6,0,6.335-1.491,7.2-5.59a.456.456,0,0,1,.124-.373c-.248-.124-.373-.248-.621-.248-.373-.124-.373-.124-.5-.124" transform="translate(-4.8 -27.5)" fill="#232c65"/>
    </g>
  </g>
</svg>
