<svg xmlns="http://www.w3.org/2000/svg" width="30" height="30" viewBox="0 0 30 30">
  <path id="quiz" d="M38,23A15,15,0,1,1,23,8,15,15,0,0,1,38,23ZM23.4,12.96a7.834,7.834,0,0,0-7.049,3.856.727.727,0,0,0,.164.983l2.1,1.591a.726.726,0,0,0,1.008-.128c1.08-1.37,1.821-2.165,3.466-2.165,1.236,0,2.764.8,2.764,1.993,0,.906-.748,1.371-1.968,2.055-1.423.8-3.306,1.79-3.306,4.274v.242a.726.726,0,0,0,.726.726h3.387a.726.726,0,0,0,.726-.726v-.081c0-1.721,5.031-1.793,5.031-6.452C30.451,15.621,26.812,12.96,23.4,12.96Zm-.4,15a2.782,2.782,0,1,0,2.782,2.782A2.785,2.785,0,0,0,23,27.96Z" transform="translate(-8 -8)" fill="#be1622"/>
</svg>
