<svg xmlns="http://www.w3.org/2000/svg" width="40.31" height="32" viewBox="0 0 40.31 32">
  <g id="quote" transform="translate(0)">
    <g id="Group_10098" data-name="Group 10098" transform="translate(0 0)">
      <path id="Path_12882" data-name="Path 12882" d="M6.509,17.5a10.152,10.152,0,0,0,2.805.41,8.815,8.815,0,0,0,3.517-.721c-.884,3.237-3.008,8.823-7.24,9.452a1,1,0,0,0-.82.723l-.925,3.308a1.005,1.005,0,0,0,.831,1.266A7.024,7.024,0,0,0,5.625,32c5.079,0,10.109-5.3,12.231-12.892C19.1,14.654,19.467,7.958,16.4,3.744A9.162,9.162,0,0,0,8.951,0H8.912a8.915,8.915,0,0,0-2.4,17.5Z" transform="translate(21.539 0)" fill="#be1622"/>
      <path id="Path_12883" data-name="Path 12883" d="M1.15,13.288A8.935,8.935,0,0,0,6.509,17.5a10.151,10.151,0,0,0,2.8.41,8.817,8.817,0,0,0,3.518-.721c-.884,3.237-3.008,8.823-7.24,9.452a1.006,1.006,0,0,0-.82.723L3.847,30.67a1.005,1.005,0,0,0,.831,1.266A7.015,7.015,0,0,0,5.625,32c5.079,0,10.109-5.3,12.232-12.892C19.1,14.654,19.467,7.959,16.4,3.744A9.161,9.161,0,0,0,8.951,0h-.04A8.915,8.915,0,0,0,1.15,13.288Z" transform="translate(0 0)" fill="#be1622"/>
    </g>
  </g>
</svg>
