<svg xmlns="http://www.w3.org/2000/svg" width="20.433" height="22.236" viewBox="0 0 20.433 22.236">
  <g id="remind" transform="translate(0.3 0.3)">
    <g id="Group_9981" data-name="Group 9981" transform="translate(15.895 1.234)">
      <path id="Path_12762" data-name="Path 12762" d="M22.119,9.6a.451.451,0,0,1-.451-.451,9.849,9.849,0,0,0-2.9-7.012A.451.451,0,0,1,19.4,1.5,10.743,10.743,0,0,1,22.57,9.15.451.451,0,0,1,22.119,9.6Z" transform="translate(-18.632 -1.369)" fill="#222" stroke="#222" stroke-width="0.6"/>
    </g>
    <g id="Group_9982" data-name="Group 9982" transform="translate(0 1.234)">
      <path id="Path_12763" data-name="Path 12763" d="M1.451,9.6A.451.451,0,0,1,1,9.15,10.743,10.743,0,0,1,4.169,1.5a.451.451,0,1,1,.637.637A9.849,9.849,0,0,0,1.9,9.15a.451.451,0,0,1-.451.451Z" transform="translate(-1 -1.369)" fill="#222" stroke="#222" stroke-width="0.6"/>
    </g>
    <g id="Group_9983" data-name="Group 9983" transform="translate(8.114)">
      <path id="Path_12764" data-name="Path 12764" d="M13.155,3.768a.451.451,0,0,1-.451-.451V1.8a.9.9,0,0,0-1.8,0V3.318a.451.451,0,0,1-.9,0V1.8a1.8,1.8,0,0,1,3.606,0V3.318A.45.45,0,0,1,13.155,3.768Z" transform="translate(-10 0)" fill="#222" stroke="#222" stroke-width="0.6"/>
    </g>
    <g id="Group_9984" data-name="Group 9984" transform="translate(6.761 18.03)">
      <path id="Path_12765" data-name="Path 12765" d="M11.655,23.606A3.159,3.159,0,0,1,8.5,20.451a.451.451,0,1,1,.9,0,2.254,2.254,0,0,0,4.508,0,.451.451,0,1,1,.9,0A3.159,3.159,0,0,1,11.655,23.606Z" transform="translate(-8.5 -20)" fill="#222" stroke="#222" stroke-width="0.6"/>
    </g>
    <g id="Group_9985" data-name="Group 9985" transform="translate(0.902 2.705)">
      <path id="Path_12766" data-name="Path 12766" d="M18.678,19.227H3.352a1.352,1.352,0,0,1-.879-2.38,6.268,6.268,0,0,0,2.231-4.8V9.311a6.311,6.311,0,0,1,12.621,0v2.739a6.261,6.261,0,0,0,2.224,4.792,1.352,1.352,0,0,1-.872,2.386ZM11.015,3.9A5.415,5.415,0,0,0,5.606,9.311v2.739a7.162,7.162,0,0,1-2.543,5.48.451.451,0,0,0,.289.8H18.678a.451.451,0,0,0,.293-.793,7.168,7.168,0,0,1-2.547-5.483V9.311A5.415,5.415,0,0,0,11.015,3.9Z" transform="translate(-2 -3)" fill="#222" stroke="#222" stroke-width="0.6"/>
    </g>
  </g>
</svg>
