<svg xmlns="http://www.w3.org/2000/svg" width="20.574" height="18" viewBox="0 0 20.574 18">
  <path id="reply" d="M10.222,32C4.541,32-.064,35.741-.064,40.357a7.386,7.386,0,0,0,2.125,5.075A10.2,10.2,0,0,1,.2,48.373.965.965,0,0,0,.9,50a9.749,9.749,0,0,0,5.589-1.86,12.409,12.409,0,0,0,3.733.575c5.681,0,10.286-3.741,10.286-8.357S15.9,32,10.222,32Zm0,14.786a10.441,10.441,0,0,1-3.15-.486L6.16,46.01l-.783.554a8.64,8.64,0,0,1-2.31,1.165,10.078,10.078,0,0,0,.8-1.615l.426-1.129-.828-.876a5.526,5.526,0,0,1-1.6-3.753c0-3.544,3.749-6.429,8.357-6.429s8.357,2.885,8.357,6.429S14.83,46.786,10.222,46.786Z" transform="translate(0.066 -32)" fill="#ccc"/>
</svg>
