<svg id="Layer_1" data-name="Layer 1" xmlns="http://www.w3.org/2000/svg" viewBox="0 0 500 500"><defs><style>.cls-1{fill:#fefefe;}</style></defs><path class="cls-1" d="M380.22,401.83a3.83,3.83,0,0,0-.22.62c0,.1.08.23.12.34H241.65a1.14,1.14,0,0,1-.35-.83c1.76-2,4.2-1.77,6.48-1.77q62.94-.07,125.89,0C376,400.19,378.37,400,380.22,401.83Z"/><path class="cls-1" d="M401,381.87l-.85.28a12.5,12.5,0,0,1,0-13.47l.87.24Z"/><path class="cls-1" d="M324.73,188.6A13.7,13.7,0,1,1,310.46,202,13.87,13.87,0,0,1,324.73,188.6Z"/><path class="cls-1" d="M351.43,196.77a10.94,10.94,0,0,1-10.68-11.34,11.07,11.07,0,0,1,11-10.59,11,11,0,1,1-.31,21.93Z"/><path class="cls-1" d="M304.34,133.51c0-24.21-14.09-38.2-38.46-38.2H141.36c-3.16,0-6.32-.08-9.47.07-20.95,1-33.77,19.48-32.89,34.41,1,16.71.23,33.52.23,50.29,0,16.94.77,33.92-.23,50.79-.92,15.62,13.07,34.24,33.95,34.33,5.48,0,11,.26,16.43-.06,3.36-.21,4.56,1.1,5.37,4.13,3.29,12.34,6.88,24.6,10.22,36.93,1.12,4.12,2.82,7.56,7.52,8.18,5,.66,7.44-2.52,9.51-6.44,6.91-13.06,14-26,20.85-39.09,1.41-2.7,3-3.77,6.12-3.7,10.62.21,21.25.08,31.87.08,11.33,0,11.33,0,11.49-11.16.39-27.95,20.24-51.11,47.79-55.37,3.79-.59,4.32-2.08,4.3-5.42C304.27,173.35,304.34,153.43,304.34,133.51Zm-73.89,93.24c-4.94.16-8.15-2.09-9.77-6.79s-3.47-9.31-5-14c-.79-2.4-2-3.36-4.64-3.27q-9.45.32-18.9,0c-2.68-.09-3.8,1-4.61,3.34-1.65,4.87-3.48,9.67-5.42,14.43-2.36,5.78-8.56,8.14-14.46,5.66-4.76-2-6.36-6.7-4.14-12.58,9.1-24.19,18.28-48.35,27.35-72.56,1.88-5,5.22-7.16,10.59-7.14s8.65,2.11,10.56,7.18c9.13,24.35,18.45,48.62,27.62,73C242.43,221.42,238.47,226.82,230.45,226.75Z"/><path class="cls-1" d="M400.17,368.68c-.38-3.23-2.07-5.9-3.74-8.57-16-25.6-31.75-51.38-48.2-76.69-5.48-8.44-8.81-16.77-7.56-26.85.5-4.08-1.2-9.38.84-12.06,2.18-2.88,7.72-.59,11.77-1a2.09,2.09,0,0,1,.5,0c2.48.31,3.62-.51,3.47-3.27-.22-4.14-.18-8.31,0-12.45.11-2.5-.5-3.49-3.26-3.48-29.06.09-58.11.05-87.16.07-1.24,0-3-.44-3,1.57,0,5.62-1.09,11.69.77,16.65,1,2.67,7.33.94,11.2.78s4.75,1.29,4.55,4.85a128.12,128.12,0,0,0,0,15.43c.32,5-1.12,9.2-3.82,13.45q-26.34,41.64-52.3,83.51c-10.26,16.48-1.31,38,17.09,41.33l138.92-.13c10.67-2.48,17.11-9.27,20-19.68Q400.18,375.42,400.17,368.68Zm-132.5-40.15c-.09-2,1.3-3.17,2.12-4.5q13.79-22.2,27.73-44.29a12.09,12.09,0,0,0,2-7c-.13-8.46.08-16.93-.12-25.39-.08-3.08.8-4.09,3.91-3.92a126.3,126.3,0,0,0,14.43,0c3.28-.19,3.84,1.15,3.78,4-.17,8,.07,15.94-.12,23.91a15.67,15.67,0,0,0,2.61,9.3c10,15.66,19.72,31.44,30,47.84Z"/><path class="cls-1" d="M195.61,183.8l5.95-16.71c2,5.56,3.58,10,5.18,14.37.65,1.79-.07,2.38-1.83,2.35C202,183.76,199.08,183.8,195.61,183.8Z"/></svg>