<svg xmlns="http://www.w3.org/2000/svg" width="27.151" height="28" viewBox="0 0 27.151 28">
  <g id="science" transform="translate(-46 -39.436)">
    <path id="Path_15131" data-name="Path 15131" d="M72.8,63.573,64.1,48.5V41.133h.566a.848.848,0,1,0,0-1.7H54.485a.849.849,0,0,0,0,1.7h.566V48.5l-8.7,15.072a2.575,2.575,0,0,0,2.23,3.863H70.572A2.575,2.575,0,0,0,72.8,63.573ZM71.333,65.3a.863.863,0,0,1-.761.439H48.58a.879.879,0,0,1-.761-1.318l5.01-8.677a7.963,7.963,0,0,0,6.745-.752,7.264,7.264,0,0,1,4.137-1.18,8.278,8.278,0,0,1,1.58.143l6.043,10.466a.864.864,0,0,1,0,.879Z" transform="translate(0)" fill="#fff"/>
    <path id="Path_15132" data-name="Path 15132" d="M218.021,390.8a1.131,1.131,0,0,0,2.263,0A1.131,1.131,0,0,0,218.021,390.8Z" transform="translate(-160.9 -327.609)" fill="#fff"/>
    <path id="Path_15133" data-name="Path 15133" d="M148.021,338.3a1.131,1.131,0,0,0,2.263,0A1.131,1.131,0,0,0,148.021,338.3Z" transform="translate(-95.425 -278.503)" fill="#fff"/>
    <path id="Path_15134" data-name="Path 15134" d="M312.874,312.053a1.131,1.131,0,0,0,2.263,0A1.131,1.131,0,0,0,312.874,312.053Z" transform="translate(-249.621 -253.95)" fill="#fff"/>
  </g>
</svg>
