<svg xmlns="http://www.w3.org/2000/svg" width="17.268" height="20" viewBox="0 0 17.268 20">
  <path id="secure" d="M41.018,15.974a16.841,16.841,0,0,1-3.5-.86,7.5,7.5,0,0,1-3.212-1.95l-.057-.057-.057-.057c-.057,0-.057-.057-.115-.057s-.057-.057-.115-.057-.057-.057-.115-.057-.057-.057-.115-.057h-.688c-.057,0-.057,0-.115.057-.057,0-.057,0-.115.057-.057,0-.057.057-.115.057s-.057.057-.115.057l-.057.057-.057.057a8.278,8.278,0,0,1-3.212,1.95,20.252,20.252,0,0,1-3.5.86,1.173,1.173,0,0,0-1.032,1.147,24.925,24.925,0,0,0,1.262,8.889,11.45,11.45,0,0,0,3.5,4.875,7.592,7.592,0,0,0,1.835,1.147c.746.4,1.663,1.032,2.523.688a11.915,11.915,0,0,0,5.62-4.3,12.49,12.49,0,0,0,1.262-2.466,24.925,24.925,0,0,0,1.262-8.889A1.1,1.1,0,0,0,41.018,15.974Zm-2.351,9.234a8.9,8.9,0,0,1-5.219,5.276,8.9,8.9,0,0,1-5.219-5.276,21.759,21.759,0,0,1-1.09-7.112,19.58,19.58,0,0,0,2.982-.8,10.978,10.978,0,0,0,3.326-1.778,10.978,10.978,0,0,0,3.326,1.778,17.964,17.964,0,0,0,2.982.8,21.758,21.758,0,0,1-1.09,7.112ZM32.989,23.6l-2.294-1.663a1.147,1.147,0,0,0-1.376,1.835l3.154,2.294a1.192,1.192,0,0,0,1.721-.4c1.262-1.548,2.581-3.1,3.843-4.645a1.142,1.142,0,1,0-1.778-1.434L32.989,23.6Z" transform="translate(-24.73 -12.82)" fill="#6c757d"/>
</svg>
