<svg xmlns="http://www.w3.org/2000/svg" width="28" height="28.001" viewBox="0 0 28 28.001">
  <path id="self_development" data-name="self development" d="M21331.506,14179h-14v-3.5h-3.5a3.5,3.5,0,0,1-3.5-3.5v-3.5h-1.752a1.755,1.755,0,0,1-1.6-2.459c.441-1,.945-2.486,1.434-3.928l.006-.012,0-.015.018-.056a30.614,30.614,0,0,1,2.537-6.207,11.391,11.391,0,0,1,9.3-4.824h4.055a10.486,10.486,0,0,1,7,18.31l.006,9.69Zm-10.619-13.405a1.18,1.18,0,0,1,1.172,1.155v.813a1.168,1.168,0,0,0,1.164,1.17h1.168a1.169,1.169,0,0,0,1.166-1.17v-.755a1.182,1.182,0,0,1,1.174-1.159,1.074,1.074,0,0,1,.576.165l.7.41a1.134,1.134,0,0,0,1.576-.41l.58-.99a1.317,1.317,0,0,0-.406-1.693l-.7-.405a1.2,1.2,0,0,1,0-2.044l.7-.41a1.184,1.184,0,0,0,.559-.755,1.035,1.035,0,0,0-.152-.819l-.58-.99a1.156,1.156,0,0,0-.99-.59,1.07,1.07,0,0,0-.586.18l-.7.41a1.064,1.064,0,0,1-.576.165,1.214,1.214,0,0,1-.814-.33,1.151,1.151,0,0,1-.359-.829v-.815a1.166,1.166,0,0,0-1.166-1.165h-1.168a1.165,1.165,0,0,0-1.164,1.165v.761a1.181,1.181,0,0,1-1.172,1.159,1.1,1.1,0,0,1-.58-.17l-.7-.351a1.137,1.137,0,0,0-.588-.165,1.124,1.124,0,0,0-.986.575l-.584.99a1.279,1.279,0,0,0,.41,1.635l.7.409a1.1,1.1,0,0,1,.57.989,1.119,1.119,0,0,1-.57,1l-.7.405a1.2,1.2,0,0,0-.564.755,1.054,1.054,0,0,0,.154.819l.584.994a1.152,1.152,0,0,0,.99.59,1.03,1.03,0,0,0,.584-.179l.7-.351A1.1,1.1,0,0,1,21320.887,14165.595Zm6.65-11.8a.932.932,0,1,0,.932.934A.934.934,0,0,0,21327.537,14153.8Zm-3.73,10.267a2.334,2.334,0,1,1,2.334-2.335A2.337,2.337,0,0,1,21323.807,14164.065Z" transform="translate(-21307.004 -14150.999)" fill="#fff"/>
</svg>
