<svg xmlns="http://www.w3.org/2000/svg" width="20" height="20" viewBox="0 0 20 20">
  <path id="snapchat" d="M10,8A10,10,0,1,0,20,18,10,10,0,0,0,10,8Zm6.835,13.665c-.141.327-.73.565-1.806.734a4.955,4.955,0,0,0-.173.641.311.311,0,0,1-.327.238H14.52c-.25,0-.516-.117-1.04-.117a2.12,2.12,0,0,0-1.508.552,3.008,3.008,0,0,1-1.984.734,3.076,3.076,0,0,1-1.956-.734,2.126,2.126,0,0,0-1.508-.552,10.279,10.279,0,0,0-1.04.125.32.32,0,0,1-.335-.242,5.062,5.062,0,0,0-.173-.645c-.556-.085-1.806-.3-1.835-.863a.285.285,0,0,1,.238-.3,4.038,4.038,0,0,0,2.742-2.3s0-.008.008-.012a.6.6,0,0,0,.065-.5c-.137-.319-.722-.431-.968-.532-.637-.25-.726-.54-.685-.738a.69.69,0,0,1,.883-.415,1.519,1.519,0,0,0,.633.169.565.565,0,0,0,.266-.056,7.974,7.974,0,0,1,.153-3.109,3.662,3.662,0,0,1,3.391-2.19l.27,0a3.629,3.629,0,0,1,3.4,2.19,7.969,7.969,0,0,1,.153,3.109.507.507,0,0,0,.23.056,1.591,1.591,0,0,0,.593-.169.737.737,0,0,1,.548,0,.561.561,0,0,1,.419.48c0,.262-.23.488-.694.669-.056.024-.125.044-.2.069-.262.085-.661.21-.766.464a.618.618,0,0,0,.065.5s0,.008.008.012a4.038,4.038,0,0,0,2.742,2.3.31.31,0,0,1,.2.435Z" transform="translate(0 -8)" fill="#222"/>
</svg>
