<svg xmlns="http://www.w3.org/2000/svg" width="25.715" height="18" viewBox="0 0 25.715 18">
  <path id="students" d="M3.857,39.714a2.571,2.571,0,1,0-2.571-2.571A2.574,2.574,0,0,0,3.857,39.714Zm18,0a2.571,2.571,0,1,0-2.571-2.571A2.574,2.574,0,0,0,21.857,39.714ZM23.143,41H20.571a2.564,2.564,0,0,0-1.812.747,5.877,5.877,0,0,1,3.017,4.4h2.652a1.284,1.284,0,0,0,1.286-1.286V43.571A2.574,2.574,0,0,0,23.143,41ZM12.857,41a4.5,4.5,0,1,0-4.5-4.5A4.5,4.5,0,0,0,12.857,41Zm3.086,1.286h-.333a6.213,6.213,0,0,1-5.5,0H9.771a4.63,4.63,0,0,0-4.629,4.629v1.157A1.929,1.929,0,0,0,7.071,50H18.643a1.929,1.929,0,0,0,1.929-1.929V46.914A4.63,4.63,0,0,0,15.943,42.286Zm-8.988-.538A2.564,2.564,0,0,0,5.143,41H2.571A2.574,2.574,0,0,0,0,43.571v1.286a1.284,1.284,0,0,0,1.286,1.286H3.933a5.892,5.892,0,0,1,3.021-4.4Z" transform="translate(0 -32)" fill="#af151f"/>
</svg>
