<svg xmlns="http://www.w3.org/2000/svg" width="22.857" height="16" viewBox="0 0 22.857 16">
  <path id="students_num" data-name="students num" d="M3.429,38.857a2.286,2.286,0,1,0-2.286-2.286A2.288,2.288,0,0,0,3.429,38.857Zm16,0a2.286,2.286,0,1,0-2.286-2.286A2.288,2.288,0,0,0,19.429,38.857ZM20.571,40H18.286a2.279,2.279,0,0,0-1.611.664,5.224,5.224,0,0,1,2.682,3.907h2.357a1.142,1.142,0,0,0,1.143-1.143V42.286A2.288,2.288,0,0,0,20.571,40Zm-9.143,0a4,4,0,1,0-4-4A4,4,0,0,0,11.429,40Zm2.743,1.143h-.3a5.523,5.523,0,0,1-4.893,0h-.3a4.115,4.115,0,0,0-4.114,4.114v1.029A1.715,1.715,0,0,0,6.286,48H16.571a1.715,1.715,0,0,0,1.714-1.714V45.257A4.115,4.115,0,0,0,14.171,41.143Zm-7.989-.479A2.279,2.279,0,0,0,4.571,40H2.286A2.288,2.288,0,0,0,0,42.286v1.143a1.142,1.142,0,0,0,1.143,1.143H3.5a5.237,5.237,0,0,1,2.686-3.907Z" transform="translate(0 -32)" fill="#b4b4b4"/>
</svg>
