<svg xmlns="http://www.w3.org/2000/svg" width="112" height="107.999" viewBox="0 0 112 107.999">
  <g id="success" transform="translate(6.312 8.142)">
    <g id="Group_11910" data-name="Group 11910" transform="translate(-0.312 -0.239)">
      <circle id="Ellipse_262" data-name="Ellipse 262" cx="50" cy="50" r="50" transform="translate(0 0.096)" fill="#31af91"/>
    </g>
    <g id="Group_11911" data-name="Group 11911" transform="translate(19.068 30.816)">
      <path id="Path_15065" data-name="Path 15065" d="M47.66,84.365,24.733,61.439a.751.751,0,0,1,0-1.088l6.606-6.606a.751.751,0,0,1,1.088,0L48.2,69.521,77.892,39.833a.751.751,0,0,1,1.088,0l6.606,6.606a.751.751,0,0,1,0,1.088L48.748,84.365A.751.751,0,0,1,47.66,84.365Z" transform="translate(-24.5 -39.6)" fill="#fff"/>
    </g>
    <path id="Path_15219" data-name="Path 15219" d="M6.65,19.6l1.41-3.58L9.48,19.6l3.58,1.42L9.48,22.43,8.06,26.02,6.65,22.43,3.06,21.02Z" transform="translate(-9.372 64.838)" fill="#31af91" opacity="0.3"/>
    <path id="Path_15220" data-name="Path 15220" d="M10.24,23.18l2.82-7.16,2.84,7.16,7.16,2.84L15.9,28.84l-2.84,7.18-2.82-7.18L3.06,26.02Z" transform="translate(82.628 -24.162)" fill="#31af91" opacity="0.4"/>
  </g>
</svg>
