<svg xmlns="http://www.w3.org/2000/svg" width="53.654" height="50.4" viewBox="0 0 53.654 50.4">
  <g id="trainers" transform="translate(0.2 0.2)">
    <path id="Path_13121" data-name="Path 13121" d="M177.8,339.838a3.525,3.525,0,1,0-3.525-3.525A3.525,3.525,0,0,0,177.8,339.838Zm0-5.528a2,2,0,1,1-2,2A2,2,0,0,1,177.8,334.31Z" transform="translate(-155.331 -298.281)" fill="#af151f" stroke="#af151f" stroke-width="0.4"/>
    <path id="Path_13122" data-name="Path 13122" d="M152.2,397.569v4.883a.727.727,0,0,0,.764.716h10.319a.72.72,0,0,0,.757-.716v-4.883a3.207,3.207,0,0,0-3.243-3.2.739.739,0,0,0-.613.286,2.5,2.5,0,0,1-.546.534,2.588,2.588,0,0,1-3.575-.531.741.741,0,0,0-.613-.289,3.213,3.213,0,0,0-3.25,3.2Zm1.521,0a1.731,1.731,0,0,1,1.4-1.694,4.074,4.074,0,0,0,6.009,0,1.728,1.728,0,0,1,1.393,1.694v4.078h-8.8Z" transform="translate(-135.657 -353.169)" fill="#af151f" stroke="#af151f" stroke-width="0.4"/>
    <path id="Path_13123" data-name="Path 13123" d="M292.41,339.838a3.525,3.525,0,1,0-3.525-3.525A3.524,3.524,0,0,0,292.41,339.838Zm0-5.528a2,2,0,1,1-2,2A2,2,0,0,1,292.41,334.31Z" transform="translate(-257.489 -298.281)" fill="#af151f" stroke="#af151f" stroke-width="0.4"/>
    <path id="Path_13124" data-name="Path 13124" d="M267.129,397.569v4.883a.7.7,0,0,0,.729.716h10.319a.751.751,0,0,0,.791-.716v-4.883a3.236,3.236,0,0,0-3.277-3.2.738.738,0,0,0-.613.286,2.492,2.492,0,0,1-.547.534,2.587,2.587,0,0,1-3.574-.531.742.742,0,0,0-.613-.289,3.184,3.184,0,0,0-3.216,3.2Zm1.521,0a1.716,1.716,0,0,1,1.379-1.694,4.062,4.062,0,0,0,5.408.529,4.165,4.165,0,0,0,.6-.529,1.742,1.742,0,0,1,1.408,1.695v4.078h-8.8Z" transform="translate(-238.097 -353.169)" fill="#af151f" stroke="#af151f" stroke-width="0.4"/>
    <path id="Path_13125" data-name="Path 13125" d="M407.023,339.838a3.525,3.525,0,1,0-3.525-3.525A3.524,3.524,0,0,0,407.023,339.838Zm0-5.528a2,2,0,1,1-2,2A2,2,0,0,1,407.023,334.31Z" transform="translate(-359.645 -298.281)" fill="#af151f" stroke="#af151f" stroke-width="0.4"/>
    <path id="Path_13126" data-name="Path 13126" d="M389.7,394.37a.738.738,0,0,0-.613.286,2.508,2.508,0,0,1-.547.534,2.556,2.556,0,0,1-3.574-.528.745.745,0,0,0-.612-.292,3.247,3.247,0,0,0-3.29,3.2v4.883a.761.761,0,0,0,.8.716h10.319a.687.687,0,0,0,.717-.716v-4.883a3.174,3.174,0,0,0-3.2-3.2Zm.31,1.5a1.711,1.711,0,0,1,1.374,1.695v4.078h-8.8v-4.078A1.749,1.749,0,0,1,384,395.875a4.078,4.078,0,0,0,6.009,0Z" transform="translate(-339.651 -353.169)" fill="#af151f" stroke="#af151f" stroke-width="0.4"/>
    <path id="Path_13127" data-name="Path 13127" d="M51.548,25.279a4.3,4.3,0,0,0,4.291-4.3V19.563a4.29,4.29,0,0,0-8.581,0V20.98A4.3,4.3,0,0,0,51.548,25.279Zm-2.77-5.716a2.77,2.77,0,0,1,5.54,0V20.98a2.77,2.77,0,0,1-5.54,0Z" transform="translate(-42.122 -15.273)" fill="#af151f" stroke="#af151f" stroke-width="0.4"/>
    <path id="Path_13128" data-name="Path 13128" d="M.031,123.239A2.646,2.646,0,0,0,2.719,125.9h0l.03.027a2.637,2.637,0,0,0,1.324-.36l.483,16.269a2.876,2.876,0,0,0,4.992,1.847,2.875,2.875,0,0,0,4.992-1.846l.483-16.234a2.631,2.631,0,0,0,1.317.352,2.7,2.7,0,0,0,2.7-2.715V112.394a4.417,4.417,0,0,0-3.945-4.827c-.146-.016-.292-.025-.438-.027H12.791a.766.766,0,0,0-.52.21L9.55,110.305l-2.615-2.547a.765.765,0,0,0-.53-.219H4.426A4.425,4.425,0,0,0,0,111.984c0,.136.031.274.031.41Zm11.656,19.852a1.342,1.342,0,0,1-1.337-1.356V125.743a.76.76,0,0,0-1.521,0v15.991a1.371,1.371,0,0,1-2.741.044l-.566-18.706h8.056l-.545,18.7A1.352,1.352,0,0,1,11.686,143.091ZM2.363,109.919a2.9,2.9,0,0,1,2.063-.858H6.1L9.01,111.9l.015.015.031.029.028.022.033.024.03.019.034.019.033.017a.3.3,0,0,0,.033.015l.036.014.033.011.037.011.034.008.038.007.035,0,.037,0h.072l.037,0,.035,0,.038-.006.034-.007.037-.009.033-.011.036-.013.033-.014.034-.017.033-.018.032-.02a.341.341,0,0,0,.032-.022l.03-.023.029-.025c.005,0,.011-.013.017-.018l3.032-2.849h1.563a3,3,0,0,1,2.26,1.079,2.888,2.888,0,0,1,.625,2.14c0,.025-.022.052-.022.078v10.88a1.195,1.195,0,0,1-2.39,0v-2.368l.011-.378c0-.053-.011-.1-.011-.155v-4.38a.76.76,0,0,0-1.521,0v4.891l.015.706H5.477l-.019-1.117c0-.036,0-.06,0-.095v-4.385a.76.76,0,0,0-1.521,0v7.229a1.2,1.2,0,0,1-1.206,1.192H2.719a1.131,1.131,0,0,1-.831-.322,1.11,1.11,0,0,1-.337-.816V112.357c0-.026-.014-.051-.016-.077-.01-.1-.021-.2-.021-.3A2.9,2.9,0,0,1,2.363,109.919Z" transform="translate(0 -97.512)" fill="#af151f" stroke="#af151f" stroke-width="0.4"/>
    <path id="Path_13129" data-name="Path 13129" d="M183.938,23.323h1.2V38.855A3.048,3.048,0,0,0,188.2,41.9h9.566l-5.274,4.709A.765.765,0,0,0,193,47.941a.754.754,0,0,0,.505-.191l5.828-5.191,5.828,5.192a.761.761,0,0,0,1.074-.062.773.773,0,0,0-.062-1.084L200.895,41.9h9.566a3.015,3.015,0,0,0,3.024-3.041V23.323h1.275a.8.8,0,0,0,.789-.781v-5.22a.763.763,0,0,0-.789-.734H183.938a.736.736,0,0,0-.758.734v5.22A.775.775,0,0,0,183.938,23.323Zm28.026,15.532a1.493,1.493,0,0,1-1.5,1.521H188.2a1.525,1.525,0,0,1-1.542-1.521V23.323h25.308ZM184.7,18.109h29.327V21.8H184.7Z" transform="translate(-163.272 -16.445)" fill="#af151f" stroke="#af151f" stroke-width="0.4"/>
    <path id="Path_13130" data-name="Path 13130" d="M240.907,121.054h14.012a.76.76,0,1,0,0-1.521H240.907a.76.76,0,1,0,0,1.521Z" transform="translate(-214.047 -108.202)" fill="#af151f" stroke="#af151f" stroke-width="0.4"/>
    <path id="Path_13131" data-name="Path 13131" d="M240.907,149.038h18.465a.76.76,0,1,0,0-1.521H240.907a.76.76,0,1,0,0,1.521Z" transform="translate(-214.047 -133.145)" fill="#af151f" stroke="#af151f" stroke-width="0.4"/>
    <path id="Path_13132" data-name="Path 13132" d="M240.907,176.023h18.465a.76.76,0,1,0,0-1.521H240.907a.76.76,0,1,0,0,1.521Z" transform="translate(-214.047 -157.197)" fill="#af151f" stroke="#af151f" stroke-width="0.4"/>
  </g>
</svg>
