<svg xmlns="http://www.w3.org/2000/svg" width="79.147" height="50.4" viewBox="0 0 79.147 50.4">
  <g id="users" transform="translate(0.2 0.2)">
    <g id="Group_11357" data-name="Group 11357" transform="translate(0 0)">
      <path id="Path_13133" data-name="Path 13133" d="M68.105,114.25a8.99,8.99,0,1,0-10.315,0,15.577,15.577,0,0,0-5.313,3.116,20.157,20.157,0,0,0-7.292-3.973,11.39,11.39,0,1,0-11.779,0,20.325,20.325,0,0,0-7.214,3.926,15.7,15.7,0,0,0-5.251-3.054,8.99,8.99,0,1,0-10.315,0A15.781,15.781,0,0,0,0,129.177v1.028a.067.067,0,0,0,.062.062H19.118a20.956,20.956,0,0,0-.171,2.633v1.06a8.285,8.285,0,0,0,8.289,8.289H51.387a8.285,8.285,0,0,0,8.289-8.289V132.9a20.954,20.954,0,0,0-.171-2.633h19.18a.067.067,0,0,0,.062-.062v-1.028A15.841,15.841,0,0,0,68.105,114.25Zm-11.655-7.37a6.5,6.5,0,1,1,6.622,6.5h-.249A6.488,6.488,0,0,1,56.451,106.881ZM30.368,103.64a8.9,8.9,0,1,1,9.411,8.881H38.75A8.91,8.91,0,0,1,30.368,103.64ZM9.24,106.881a6.5,6.5,0,1,1,6.622,6.5h-.249A6.5,6.5,0,0,1,9.24,106.881Zm10.315,20.879H2.524a13.313,13.313,0,0,1,13.119-11.888h.187a13.174,13.174,0,0,1,8.492,3.163A20.458,20.458,0,0,0,19.554,127.759Zm37.6,6.2a5.805,5.805,0,0,1-5.8,5.8H27.2a5.805,5.805,0,0,1-5.8-5.8V132.9A17.9,17.9,0,0,1,38.75,115.03c.171.016.358.016.53.016s.358,0,.53-.016A17.9,17.9,0,0,1,57.152,132.9Zm1.854-6.2a20.4,20.4,0,0,0-4.721-8.663,13.238,13.238,0,0,1,8.57-3.225h.187a13.313,13.313,0,0,1,13.119,11.888Z" transform="translate(0 -92.25)" fill="#af151f" stroke="#af151f" stroke-width="0.4"/>
    </g>
  </g>
</svg>
