<svg xmlns="http://www.w3.org/2000/svg" width="49.416" height="15.999" viewBox="0 0 49.416 15.999">
  <g id="visa" transform="translate(-25.009 -181.864)">
    <g id="形状_1_3_" transform="translate(29.328 181.864)">
      <g id="形状_1" transform="translate(0 0)">
        <g id="Group_12098" data-name="Group 12098">
          <path id="Path_15217" data-name="Path 15217" d="M80.954,182.141,78.439,197.6h4.024l2.515-15.457Zm-5.9,0-3.836,10.631-.454-2.289h0l-.1-.513a12.818,12.818,0,0,0-3.57-4.526,16.1,16.1,0,0,0-1.79-1.239L68.79,197.6h4.193l6.4-15.457Zm15.7,4.291c0-1.748,3.919-1.523,5.641-.574l.574-3.32a11.616,11.616,0,0,0-3.619-.674c-2,0-6.739.873-6.739,5.117,0,3.994,5.566,4.043,5.566,6.14s-4.992,1.722-6.639.4l-.6,3.47a11.271,11.271,0,0,0,4.543.873c2.746,0,6.889-1.422,6.889-5.292C96.374,188.553,90.758,188.179,90.758,186.432Zm16.42-4.291h-3.235a1.849,1.849,0,0,0-1.858,1.152l-6,14.3h4.194l.839-2.3h5.116l.472,2.3H110.4Zm-4.9,9.989,2.115-5.784,1.19,5.784Z" transform="translate(-65.303 -181.864)" fill="#005bac"/>
        </g>
      </g>
    </g>
    <g id="形状_1_2_" transform="translate(25.009 182.201)">
      <g id="形状_1_1_" transform="translate(0 0)">
        <g id="Group_12099" data-name="Group 12099">
          <path id="Path_15218" data-name="Path 15218" d="M33.49,186.4a1.745,1.745,0,0,0-1.945-1.395h-6.46l-.076.262a16.008,16.008,0,0,1,6.084,3,12.072,12.072,0,0,1,3.776,5.092Z" transform="translate(-25.009 -185.007)" fill="#f6ac1d"/>
        </g>
      </g>
    </g>
  </g>
</svg>
