<svg xmlns="http://www.w3.org/2000/svg" width="69.022" height="64" viewBox="0 0 69.022 64">
  <g id="wallet" transform="translate(0.996 -18.098)">
    <path id="Path_12886" data-name="Path 12886" d="M60.9,33.327h-.834v-8.1a6.137,6.137,0,0,0-6.13-6.13H9.469A9.477,9.477,0,0,0,.05,27.637c-.071.338-.046-2.675-.046,44A9.475,9.475,0,0,0,9.469,81.1H60.9a6.137,6.137,0,0,0,6.13-6.13V39.457a6.137,6.137,0,0,0-6.13-6.13ZM9.469,23.309H53.931a1.922,1.922,0,0,1,1.92,1.92v8.1H9.469a5.26,5.26,0,0,1-5.248-5.009A5.26,5.26,0,0,1,9.469,23.309ZM60.9,76.887H9.469a5.26,5.26,0,0,1-5.254-5.254V35.942a9.41,9.41,0,0,0,5.254,1.6H60.9a1.922,1.922,0,0,1,1.92,1.92v8.535H46.971a9.786,9.786,0,1,0,0,19.571H62.815v7.4a1.922,1.922,0,0,1-1.92,1.92Zm1.92-13.534H46.971a5.575,5.575,0,1,1,0-11.15H62.815Z" transform="translate(0)" fill="#af151f" stroke="#af151f" stroke-width="2"/>
    <circle id="Ellipse_157" data-name="Ellipse 157" cx="3.051" cy="3.051" r="3.051" transform="translate(44.697 54.727)" fill="#af151f"/>
  </g>
</svg>
